# exported with NifSkope

mtllib BolterStock.mtl

# TGunGripShort:0

g TGunGripShort:0
usemtl Material.000001

v -1.6853516101837158 4.79296875 1.5068359375
v 1.7853515148162842 4.79296875 1.5068359375
v 1.7853515148162842 4.79296875 5.7734375
v -1.6853516101837158 4.79296875 5.7734375
v -1.6853516101837158 5.56640625 6.13671875
v -1.6853516101837158 4.79296875 5.7734375
v 1.7853515148162842 4.79296875 5.7734375
v 1.7853515148162842 5.56640625 6.13671875
v 1.7853515148162842 4.79296875 1.5068359375
v -1.6853516101837158 4.79296875 1.5068359375
v -1.6853516101837158 5.56640625 1.14453125
v 1.7853515148162842 5.56640625 1.14453125
v 1.7853515148162842 5.56640625 6.13671875
v 1.7853515148162842 4.79296875 5.7734375
v 1.7853515148162842 4.79296875 1.5068359375
v 1.7853515148162842 5.56640625 1.14453125
v -1.6853516101837158 4.79296875 1.5068359375
v -1.6853516101837158 4.79296875 5.7734375
v -1.6853516101837158 5.56640625 6.13671875
v -1.6853516101837158 5.56640625 1.14453125
vt 0.409912109375 0.3271484375
vt 0.362060546875 0.3271484375
vt 0.362060546875 0.26806640625
vt 0.409912109375 0.26806640625
vt 0.409912109375 0.25634765625
vt 0.409912109375 0.26806640625
vt 0.362060546875 0.26806640625
vt 0.362060546875 0.25634765625
vt 0.362060546875 0.3271484375
vt 0.409912109375 0.3271484375
vt 0.409912109375 0.3388671875
vt 0.362060546875 0.3388671875
vt 0.3515625 0.26318359375
vt 0.362060546875 0.26806640625
vt 0.362060546875 0.3271484375
vt 0.3515625 0.33203125
vt 0.409912109375 0.3271484375
vt 0.409912109375 0.26806640625
vt 0.420654296875 0.26318359375
vt 0.420654296875 0.33203125
vn 0.0039215688593685627 -1 0.0039215688593685627
vn 0.0039215688593685627 -1 0.0039215688593685627
vn 0.0039215688593685627 -1 0.0039215688593685627
vn 0.0039215688593685627 -1 0.0039215688593685627
vn 0.0039215688593685627 -0.42745098471641541 0.90588235855102539
vn 0.0039215688593685627 -0.42745098471641541 0.90588235855102539
vn 0.0039215688593685627 -0.42745098471641541 0.90588235855102539
vn 0.0039215688593685627 -0.42745098471641541 0.90588235855102539
vn 0.0039215688593685627 -0.42745098471641541 -0.90588235855102539
vn 0.0039215688593685627 -0.42745098471641541 -0.90588235855102539
vn 0.0039215688593685627 -0.42745098471641541 -0.90588235855102539
vn 0.0039215688593685627 -0.42745098471641541 -0.90588235855102539
vn 1 0.0039215688593685627 0.0039215688593685627
vn 1 0.0039215688593685627 0.0039215688593685627
vn 1 0.0039215688593685627 0.0039215688593685627
vn 1 0.0039215688593685627 0.0039215688593685627
vn -1 0.0039215688593685627 0.0039215688593685627
vn -1 0.0039215688593685627 0.0039215688593685627
vn -1 0.0039215688593685627 0.0039215688593685627
vn -1 0.0039215688593685627 0.0039215688593685627
f 1/1/1 2/2/2 3/3/3
f 3/3/3 4/4/4 1/1/1
f 5/5/5 6/6/6 7/7/7
f 7/7/7 8/8/8 5/5/5
f 9/9/9 10/10/10 11/11/11
f 11/11/11 12/12/12 9/9/9
f 13/13/13 14/14/14 15/15/15
f 15/15/15 16/16/16 13/13/13
f 17/17/17 18/18/18 19/19/19
f 19/19/19 20/20/20 17/17/17
