# Blender v2.79 (sub 0) OBJ File: ''
# www.blender.org
mtllib Coils.mtl
o HeadAssaultron:0
v -0.105302 1.971332 0.583931
v 0.063861 5.662450 0.952026
v 0.245816 5.731783 0.456253
v 0.158656 2.086833 -0.248314
v 0.663739 5.715840 0.644806
v 1.027303 2.073412 -0.005806
v 1.027303 2.073412 -0.005806
v 0.663739 5.715840 0.644806
v 0.522068 5.653608 1.093315
v 0.766331 1.957646 0.828949
v 1.391594 4.028376 1.425079
v 1.243403 4.266288 -0.401428
v -0.408238 3.975213 1.536041
v 0.535046 3.955122 1.841164
v -0.596712 4.206025 -0.243210
v -0.871099 4.080759 0.661331
v 0.297135 4.286643 -0.709061
v 1.703280 4.161006 0.470764
v 1.777362 2.989170 1.597816
v 1.587219 3.316417 -0.912338
v -0.708965 2.911753 1.781212
v 0.574620 2.882653 2.209755
v -0.940886 3.232032 -0.682945
v -1.348007 3.054436 0.596573
v 0.303634 3.345512 -1.340897
v 2.226261 3.173729 0.272293
v -0.400946 3.634493 1.491066
v 1.250695 3.925570 -0.446404
v 1.398886 3.687657 1.380104
v 0.542337 3.614408 1.796196
v 1.710571 3.820287 0.425797
v -0.589421 3.865306 -0.288185
v 0.304427 3.945923 -0.754036
v -0.863807 3.740039 0.616364
v -0.701839 2.578777 1.737251
v 1.594345 2.983445 -0.956291
v 1.784489 2.656192 1.553864
v 0.581746 2.549682 2.165810
v 2.233387 2.840757 0.228340
v -0.933760 2.899061 -0.726898
v 0.310759 3.012540 -1.384834
v -1.340881 2.721464 0.552628
v -0.589421 3.865306 -0.288185
v 0.304427 3.945923 -0.754036
v 1.250695 3.925570 -0.446404
v 1.710571 3.820287 0.425797
v 1.398886 3.687657 1.380104
v 0.542337 3.614408 1.796196
v -0.400946 3.634493 1.491066
v -0.863807 3.740039 0.616364
v -0.933760 2.899061 -0.726898
v 0.310759 3.012540 -1.384834
v 1.594345 2.983445 -0.956291
v 2.233387 2.840757 0.228340
v 1.784489 2.656192 1.553864
v 0.581746 2.549682 2.165810
v -1.340881 2.721464 0.552628
v 6.139130 -8.826924 -0.509567
v 5.823865 -6.940312 12.152542
v -9.739985 -4.340783 -10.065636
v 1.139674 5.078812 1.368134
v 1.019943 5.260689 -0.029213
v -0.269142 5.033504 1.482948
v 0.472643 5.020722 1.700073
v -0.388874 5.215381 0.085602
v -0.608089 5.117282 0.793282
v 0.318442 5.280571 -0.293587
v 1.399173 5.184011 0.613197
v -0.261851 4.692790 1.437981
v 1.027235 4.919969 -0.074181
v 1.146966 4.738093 1.323158
v 0.479934 4.680002 1.655098
v 1.406465 4.843291 0.568230
v -0.381582 4.874666 0.040634
v 0.325733 4.939850 -0.338554
v -0.600797 4.776568 0.748314
v -0.381582 4.874666 0.040634
v 0.325733 4.939850 -0.338554
v 1.027235 4.919969 -0.074181
v 1.406465 4.843291 0.568230
v 1.146966 4.738093 1.323158
v 0.479934 4.680002 1.655098
v -0.261851 4.692790 1.437981
v -0.600797 4.776568 0.748314
v 0.331485 7.199144 0.997719
v 0.386679 6.945679 0.180069
v -0.228128 6.893623 0.474770
v 0.947903 6.916931 0.488853
v 1.091322 6.839924 1.095520
v 0.648199 6.761832 1.615326
v 0.021373 6.753643 1.575722
v -0.378716 6.810786 1.077911
v 0.397738 6.170023 -0.092361
v -0.351374 6.108568 0.251762
v 1.118664 6.137707 0.269363
v 1.274064 6.038231 1.048203
v 0.750373 5.945940 1.662514
v -0.049570 5.931823 1.639771
v -0.528793 6.006734 0.994507
v 0.371754 5.317456 0.749359
v -0.351374 6.108568 0.251762
v 0.397738 6.170023 -0.092361
v 1.118664 6.137707 0.269363
v 1.274064 6.038231 1.048203
v 0.750373 5.945940 1.662514
v -0.049570 5.931823 1.639771
v -0.528793 6.006734 0.994507
vt 0.908691 0.201172
vt 0.899414 0.131348
vt 0.890137 0.131836
vt 0.892090 0.202637
vt 0.881348 0.131836
vt 0.875000 0.202148
vt 0.941406 0.192871
vt 0.916992 0.126953
vt 0.908203 0.129395
vt 0.925293 0.197754
vt 0.191650 0.056152
vt 0.148926 0.012207
vt 0.148926 0.099121
vt 0.178711 0.085938
vt 0.106140 0.056152
vt 0.119080 0.085938
vt 0.119446 0.025879
vt 0.178345 0.025879
vt 0.191650 0.056152
vt 0.148926 0.012207
vt 0.148926 0.099121
vt 0.178711 0.085938
vt 0.106140 0.056152
vt 0.119080 0.085938
vt 0.119446 0.025879
vt 0.178345 0.025879
vt 0.045319 0.003906
vt 0.052155 0.092285
vt 0.092896 0.044922
vt 0.077515 0.014648
vt 0.082397 0.077148
vt 0.004562 0.051758
vt 0.019913 0.082031
vt 0.015083 0.019531
vt 0.045319 0.003906
vt 0.052155 0.092285
vt 0.092896 0.044922
vt 0.077515 0.014648
vt 0.082397 0.077148
vt 0.004562 0.051758
vt 0.019913 0.082031
vt 0.015083 0.019531
vt 0.098999 0.055664
vt 0.114136 0.020996
vt 0.148926 0.004883
vt 0.183594 0.020996
vt 0.198730 0.055664
vt 0.183960 0.091309
vt 0.148926 0.106445
vt 0.113831 0.091309
vt 0.098999 0.055664
vt 0.114136 0.020996
vt 0.148926 0.004883
vt 0.183594 0.020996
vt 0.198730 0.055664
vt 0.183960 0.091309
vt 0.113831 0.091309
vt 0.191650 0.056152
vt 0.148926 0.012207
vt 0.148926 0.099121
vt 0.178711 0.085938
vt 0.106140 0.056152
vt 0.119080 0.085938
vt 0.119446 0.025879
vt 0.178345 0.025879
vt 0.045319 0.003906
vt 0.052155 0.092285
vt 0.092896 0.044922
vt 0.077515 0.014648
vt 0.082397 0.077148
vt 0.004562 0.051758
vt 0.019913 0.082031
vt 0.015083 0.019531
vt 0.098999 0.055664
vt 0.114136 0.020996
vt 0.148926 0.004883
vt 0.183594 0.020996
vt 0.198730 0.055664
vt 0.183960 0.091309
vt 0.148926 0.106445
vt 0.113831 0.091309
vt 0.138306 0.691406
vt 0.130615 0.681641
vt 0.125854 0.691406
vt 0.141113 0.679199
vt 0.149536 0.685791
vt 0.149536 0.696777
vt 0.141113 0.703369
vt 0.130615 0.701172
vt 0.122192 0.671143
vt 0.112427 0.691406
vt 0.144165 0.666016
vt 0.161743 0.680176
vt 0.161743 0.702637
vt 0.144165 0.716553
vt 0.122192 0.711670
vt 0.118774 0.930481
vt 0.097717 0.930481
vt 0.105652 0.946991
vt 0.123474 0.951050
vt 0.137695 0.939636
vt 0.137695 0.921387
vt 0.123474 0.909973
vt 0.105652 0.914001
vn -0.8879 -0.0040 0.4601
vn -0.4517 0.1811 -0.8736
vn 0.8867 0.1516 -0.4369
vn 0.8867 0.1516 -0.4368
vn 0.4577 -0.0322 0.8885
vn 0.4577 -0.0323 0.8885
vn 0.5864 0.5658 0.5797
vn 0.4933 0.7072 -0.5065
vn -0.5119 0.5338 0.6731
vn 0.0583 0.5205 0.8519
vn -0.6055 0.6761 -0.4198
vn -0.7879 0.5984 0.1454
vn -0.0738 0.7211 -0.6889
vn 0.7657 0.6430 0.0181
vn -0.0527 0.9741 0.2200
vn -0.5440 0.8367 -0.0629
vn -0.0737 0.7211 -0.6889
vn -0.4826 -0.7155 0.5052
vn 0.5174 -0.5354 -0.6676
vn 0.6100 -0.6761 0.4133
vn 0.0846 -0.7249 0.6836
vn 0.7884 -0.5977 -0.1453
vn -0.5758 -0.5739 -0.5823
vn -0.0468 -0.5254 -0.8496
vn -0.7572 -0.6528 -0.0201
vn -0.4827 -0.7155 0.5052
vn 0.7884 -0.5977 -0.1454
vn -0.0469 -0.5253 -0.8496
vn 0.5175 -0.5354 -0.6675
vn 0.7884 -0.5978 -0.1453
vn -0.4825 -0.7155 0.5053
vn 0.6100 -0.6760 0.4133
vn 0.0310 -0.7142 0.6993
vn -0.9048 -0.4222 0.0558
vn -0.5118 0.5339 0.6731
vn -0.4827 -0.7155 0.5051
vn 0.5174 -0.5354 -0.6675
vn 0.0845 -0.7249 0.6836
vn -0.0467 -0.5254 -0.8496
vn 0.0845 -0.7250 0.6836
vn -0.7573 -0.6528 -0.0201
vn -0.0157 0.9913 0.1304
vn 0.0184 0.6724 -0.7400
vn -0.6375 0.6215 -0.4553
vn 0.6458 0.6412 -0.4145
vn 0.7844 0.5535 0.2798
vn 0.3304 0.4747 0.8158
vn -0.3860 0.4627 0.7981
vn -0.8157 0.5288 0.2347
vn 0.0365 -0.1661 -0.9854
vn -0.7215 -0.2266 -0.6543
vn 0.7708 -0.1986 -0.6054
vn 0.9327 -0.3010 0.1987
vn 0.4018 -0.3960 0.8257
vn -0.4286 -0.4125 0.8038
vn -0.9304 -0.3376 0.1431
vn 0.0267 -0.9910 -0.1313
vn 0.0365 -0.1662 -0.9854
vn 0.7708 -0.1987 -0.6054
vn 0.4018 -0.3961 0.8257
usemtl Material.000001
s 1
f 1/1/1 2/2/1 3/3/2
f 3/3/2 4/4/2 1/1/1
f 4/4/2 3/3/2 5/5/3
f 5/5/3 6/6/4 4/4/2
f 7/7/3 8/8/3 9/9/5
f 9/9/5 10/10/6 7/7/3
f 10/10/6 9/9/5 2/2/1
f 2/2/1 1/1/1 10/10/6
f 11/11/7 12/12/8 13/13/9
f 13/13/9 14/14/10 11/11/7
f 13/13/9 12/12/8 15/15/11
f 15/15/11 16/16/12 13/13/9
f 15/15/11 12/12/8 17/17/13
f 11/11/7 18/18/14 12/12/8
f 19/19/7 20/20/8 21/21/15
f 21/21/15 22/22/10 19/19/7
f 21/21/15 20/20/8 23/23/11
f 23/23/11 24/24/16 21/21/15
f 23/23/11 20/20/8 25/25/17
f 19/19/7 26/26/14 20/20/8
f 27/27/18 28/28/19 29/29/20
f 29/29/20 30/30/21 27/27/18
f 29/29/20 28/28/19 31/31/22
f 28/28/19 27/27/18 32/32/23
f 32/32/23 33/33/24 28/28/19
f 27/27/18 34/34/25 32/32/23
f 35/35/26 36/36/19 37/37/20
f 37/37/20 38/38/21 35/35/26
f 37/37/20 36/36/19 39/39/27
f 36/36/19 35/35/26 40/40/23
f 40/40/23 41/41/24 36/36/19
f 35/35/26 42/42/25 40/40/23
f 43/43/23 15/15/11 17/17/13
f 17/17/13 44/44/28 43/43/23
f 44/44/28 17/17/13 12/12/8
f 12/12/8 45/45/29 44/44/28
f 45/45/29 12/12/8 18/18/14
f 18/18/14 46/46/30 45/45/29
f 46/46/30 18/18/14 11/11/7
f 11/11/7 47/47/20 46/46/30
f 47/47/20 11/11/7 14/14/10
f 14/14/10 48/48/21 47/47/20
f 48/48/21 14/14/10 13/13/9
f 13/13/9 49/49/31 48/48/21
f 50/50/25 16/16/12 15/15/11
f 15/15/11 43/43/23 50/50/25
f 49/49/31 13/13/9 16/16/12
f 16/16/12 50/50/25 49/49/31
f 51/51/23 23/23/11 25/25/17
f 25/25/17 52/52/24 51/51/23
f 52/52/24 25/25/17 20/20/8
f 20/20/8 53/53/19 52/52/24
f 53/53/19 20/20/8 26/26/14
f 26/26/14 54/54/30 53/53/19
f 54/54/30 26/26/14 19/19/7
f 19/19/7 55/55/32 54/54/30
f 55/55/32 19/19/7 22/22/10
f 22/22/10 56/56/33 55/55/32
f 56/56/33 22/22/10 21/21/15
f 57/57/34 24/24/16 23/23/11
f 23/23/11 51/51/23 57/57/34
f 61/58/7 62/59/8 63/60/35
f 63/60/35 64/61/10 61/58/7
f 63/60/35 62/59/8 65/62/11
f 65/62/11 66/63/12 63/60/35
f 65/62/11 62/59/8 67/64/13
f 61/58/7 68/65/14 62/59/8
f 69/66/36 70/67/37 71/68/20
f 71/68/20 72/69/38 69/66/36
f 71/68/20 70/67/37 73/70/22
f 70/67/37 69/66/36 74/71/23
f 74/71/23 75/72/24 70/67/37
f 69/66/36 76/73/25 74/71/23
f 77/74/23 65/62/11 67/64/13
f 67/64/13 78/75/39 77/74/23
f 78/75/39 67/64/13 62/59/8
f 62/59/8 79/76/19 78/75/39
f 79/76/19 62/59/8 68/65/14
f 68/65/14 80/77/30 79/76/19
f 80/77/30 68/65/14 61/58/7
f 61/58/7 81/78/20 80/77/30
f 81/78/20 61/58/7 64/61/10
f 64/61/10 82/79/40 81/78/20
f 82/79/40 64/61/10 63/60/35
f 63/60/35 83/80/31 82/79/40
f 84/81/41 66/63/12 65/62/11
f 65/62/11 77/74/23 84/81/41
f 83/80/31 63/60/35 66/63/12
f 66/63/12 84/81/41 83/80/31
f 85/82/42 86/83/43 87/84/44
f 85/82/42 88/85/45 86/83/43
f 85/82/42 89/86/46 88/85/45
f 85/82/42 90/87/47 89/86/46
f 85/82/42 91/88/48 90/87/47
f 85/82/42 92/89/49 91/88/48
f 85/82/42 87/84/44 92/89/49
f 93/90/50 94/91/51 87/84/44
f 87/84/44 86/83/43 93/90/50
f 95/92/52 93/90/50 86/83/43
f 86/83/43 88/85/45 95/92/52
f 96/93/53 95/92/52 88/85/45
f 88/85/45 89/86/46 96/93/53
f 97/94/54 96/93/53 89/86/46
f 89/86/46 90/87/47 97/94/54
f 98/95/55 97/94/54 90/87/47
f 90/87/47 91/88/48 98/95/55
f 99/96/56 98/95/55 91/88/48
f 91/88/48 92/89/49 99/96/56
f 94/91/51 99/96/56 92/89/49
f 92/89/49 87/84/44 94/91/51
f 100/97/57 101/98/51 102/99/58
f 100/97/57 102/99/58 103/100/59
f 100/97/57 103/100/59 104/101/53
f 100/97/57 104/101/53 105/102/60
f 100/97/57 105/102/60 106/103/55
f 100/97/57 106/103/55 107/104/56
f 100/97/57 107/104/56 101/98/51
