# Blender v2.79 (sub 0) OBJ File: ''
# www.blender.org
mtllib Coil.mtl
o HeadAssaultron:0
v -1.195168 1.868021 0.851128
v 2.507957 1.754740 0.601128
v 2.507957 1.938334 0.101128
v -1.195168 2.207865 0.038628
v 2.507957 1.496927 -0.023872
v -1.195168 1.387552 -0.336372
v -1.195168 1.387552 -0.336372
v 2.507957 1.496927 -0.023872
v 2.507957 1.313334 0.413628
v -1.195168 1.043802 0.476128
v 0.922020 0.325052 0.288628
v 0.922020 1.625834 -1.023872
v 0.922020 1.625834 1.538628
v 0.922020 0.707865 1.163628
v 0.922020 2.926615 0.288628
v 0.922020 2.547709 1.163628
v 0.922020 2.547709 -0.648872
v 0.922020 0.707865 -0.648872
v -0.093605 -0.151510 0.288628
v -0.093605 1.625834 -1.523872
v -0.093605 1.625834 2.038628
v -0.093605 0.368021 1.538628
v -0.093605 3.405130 0.288628
v -0.093605 2.883646 1.538628
v -0.093605 2.883646 -1.023872
v -0.093605 0.368021 -1.023872
v 0.578270 1.625834 1.538628
v 0.578270 1.625834 -1.023872
v 0.578270 0.325052 0.288628
v 0.578270 0.707865 1.163628
v 0.578270 0.707865 -0.648872
v 0.578270 2.926615 0.288628
v 0.578270 2.547709 -0.648872
v 0.578270 2.547709 1.163628
v -0.429543 1.625834 2.038628
v -0.429543 1.625834 -1.523872
v -0.429543 -0.151510 0.288628
v -0.429543 0.368021 1.538628
v -0.429543 0.368021 -1.023872
v -0.429543 3.405130 0.288628
v -0.429543 2.883646 -1.023872
v -0.429543 2.883646 1.538628
v 0.578270 2.926615 0.288628
v 0.578270 2.547709 -0.648872
v 0.578270 1.625834 -1.023872
v 0.578270 0.707865 -0.648872
v 0.578270 0.325052 0.288628
v 0.578270 0.707865 1.163628
v 0.578270 1.625834 1.538628
v 0.578270 2.547709 1.163628
v -0.429543 3.405130 0.288628
v -0.429543 2.883646 -1.023872
v -0.429543 1.625834 -1.523872
v -0.429543 0.368021 -1.023872
v -0.429543 -0.151510 0.288628
v -0.429543 0.368021 1.538628
v -0.429543 1.625834 2.038628
v -0.429543 2.883646 1.538628
v -8.640480 -2.737449 7.538628
v -8.640480 -10.690574 6.788620
v -5.107277 -2.940572 -2.773872
v 1.961082 0.625834 0.288628
v 1.961082 1.625834 -0.711372
v 1.961082 1.625834 1.288628
v 1.961082 0.918802 0.976128
v 1.961082 2.625834 0.288628
v 1.961082 2.332865 0.976128
v 1.961082 2.332865 -0.461372
v 1.961082 0.918802 -0.461372
v 1.617332 1.625834 1.288628
v 1.617332 1.625834 -0.711372
v 1.617332 0.625834 0.288628
v 1.617332 0.918802 0.976128
v 1.617332 0.918802 -0.461372
v 1.617332 2.625834 0.288628
v 1.617332 2.332865 -0.461372
v 1.617332 2.332865 0.976128
v 1.617332 2.625834 0.288628
v 1.617332 2.332865 -0.461372
v 1.617332 1.625834 -0.711372
v 1.617332 0.918802 -0.461372
v 1.617332 0.625834 0.288628
v 1.617332 0.918802 0.976128
v 1.617332 1.625834 1.288628
v 1.617332 2.332865 0.976128
v 4.031395 1.625834 0.288628
v 3.672020 2.090677 -0.336372
v 3.672020 2.368021 0.288628
v 3.672020 1.461771 -0.461372
v 3.672020 0.957865 -0.086372
v 3.672020 0.957865 0.601128
v 3.672020 1.461771 0.976128
v 3.672020 2.090677 0.851128
v 2.867332 2.203959 -0.461372
v 2.867332 2.551615 0.288628
v 2.867332 1.418802 -0.648872
v 2.867332 0.793802 -0.148872
v 2.867332 0.793802 0.663628
v 2.867332 1.418802 1.163628
v 2.867332 2.203959 0.976128
v 2.132957 1.625834 0.288628
v 2.867332 2.551615 0.288628
v 2.867332 2.203959 -0.461372
v 2.867332 1.418802 -0.648872
v 2.867332 0.793802 -0.148872
v 2.867332 0.793802 0.663628
v 2.867332 1.418802 1.163628
v 2.867332 2.203959 0.976128
vt 0.908691 0.201172
vt 0.899414 0.131348
vt 0.890137 0.131836
vt 0.892090 0.202637
vt 0.881348 0.131836
vt 0.875000 0.202148
vt 0.941406 0.192871
vt 0.916992 0.126953
vt 0.908203 0.129395
vt 0.925293 0.197754
vt 0.191650 0.056152
vt 0.148926 0.012207
vt 0.148926 0.099121
vt 0.178711 0.085938
vt 0.106140 0.056152
vt 0.119080 0.085938
vt 0.119446 0.025879
vt 0.178345 0.025879
vt 0.191650 0.056152
vt 0.148926 0.012207
vt 0.148926 0.099121
vt 0.178711 0.085938
vt 0.106140 0.056152
vt 0.119080 0.085938
vt 0.119446 0.025879
vt 0.178345 0.025879
vt 0.045319 0.003906
vt 0.052155 0.092285
vt 0.092896 0.044922
vt 0.077515 0.014648
vt 0.082397 0.077148
vt 0.004562 0.051758
vt 0.019913 0.082031
vt 0.015083 0.019531
vt 0.045319 0.003906
vt 0.052155 0.092285
vt 0.092896 0.044922
vt 0.077515 0.014648
vt 0.082397 0.077148
vt 0.004562 0.051758
vt 0.019913 0.082031
vt 0.015083 0.019531
vt 0.098999 0.055664
vt 0.114136 0.020996
vt 0.148926 0.004883
vt 0.183594 0.020996
vt 0.198730 0.055664
vt 0.183960 0.091309
vt 0.148926 0.106445
vt 0.113831 0.091309
vt 0.098999 0.055664
vt 0.114136 0.020996
vt 0.148926 0.004883
vt 0.183594 0.020996
vt 0.198730 0.055664
vt 0.183960 0.091309
vt 0.148926 0.106445
vt 0.113831 0.091309
vt 0.191650 0.056152
vt 0.148926 0.012207
vt 0.148926 0.099121
vt 0.178711 0.085938
vt 0.106140 0.056152
vt 0.119080 0.085938
vt 0.119446 0.025879
vt 0.178345 0.025879
vt 0.045319 0.003906
vt 0.052155 0.092285
vt 0.092896 0.044922
vt 0.077515 0.014648
vt 0.082397 0.077148
vt 0.004562 0.051758
vt 0.019913 0.082031
vt 0.015083 0.019531
vt 0.098999 0.055664
vt 0.114136 0.020996
vt 0.148926 0.004883
vt 0.183594 0.020996
vt 0.198730 0.055664
vt 0.183960 0.091309
vt 0.148926 0.106445
vt 0.113831 0.091309
vt 0.138306 0.691406
vt 0.130615 0.681641
vt 0.125854 0.691406
vt 0.141113 0.679199
vt 0.149536 0.685791
vt 0.149536 0.696777
vt 0.141113 0.703369
vt 0.130615 0.701172
vt 0.122192 0.671143
vt 0.112427 0.691406
vt 0.144165 0.666016
vt 0.161743 0.680176
vt 0.161743 0.702637
vt 0.144165 0.716553
vt 0.122192 0.711670
vt 0.118774 0.930481
vt 0.097717 0.930481
vt 0.105652 0.946991
vt 0.123474 0.951050
vt 0.137695 0.939636
vt 0.137695 0.921387
vt 0.123474 0.909973
vt 0.105652 0.914001
vn 0.0751 0.3832 0.9206
vn 0.0748 0.9178 -0.3899
vn 0.0748 0.9178 -0.3900
vn 0.0743 -0.3871 -0.9190
vn 0.0743 -0.3872 -0.9190
vn 0.0746 -0.9218 0.3805
vn 0.0745 -0.9218 0.3805
vn 0.6242 -0.7812 -0.0039
vn 0.6242 -0.0039 -0.7812
vn 0.6280 -0.0040 0.7782
vn 0.6261 -0.5553 0.5474
vn 0.6281 0.7782 -0.0039
vn 0.6289 0.5498 0.5498
vn 0.6262 0.5474 -0.5552
vn 0.6234 -0.5529 -0.5529
vn 0.6242 -0.7813 -0.0039
vn 0.6281 0.7782 -0.0040
vn 0.6261 0.5474 -0.5553
vn 0.6235 -0.5529 -0.5529
vn -0.6328 -0.0040 0.7743
vn -0.6290 -0.0039 -0.7774
vn -0.6290 -0.7774 -0.0039
vn -0.6309 -0.5525 0.5447
vn -0.6282 -0.5502 -0.5502
vn -0.6328 0.7743 -0.0039
vn -0.6309 0.5447 -0.5525
vn -0.6336 0.5471 0.5470
vn -0.6328 -0.0039 0.7743
vn -0.6309 -0.5526 0.5447
vn -0.6282 -0.5501 -0.5502
vn -0.6309 0.5447 -0.5526
vn -0.6282 -0.5502 -0.5501
vn -0.6337 0.5470 0.5471
vn -0.6282 -0.5503 -0.5500
vn -0.6289 -0.7774 -0.0039
vn -0.6336 0.5470 0.5470
vn 0.6242 -0.0039 -0.7813
vn 0.6281 -0.0040 0.7782
vn 0.6262 -0.5553 0.5474
vn 0.6261 0.5474 -0.5552
vn -0.6336 0.5470 0.5471
vn -0.6289 -0.0039 -0.7774
vn 1.0000 -0.0039 -0.0039
vn 0.5692 0.5064 -0.6477
vn 0.5700 0.8216 -0.0039
vn 0.5676 -0.1840 -0.8025
vn 0.5686 -0.7412 -0.3569
vn 0.5702 -0.7432 0.3500
vn 0.5712 -0.1851 0.7997
vn 0.5721 0.5090 0.6431
vn -0.2944 0.5927 -0.7497
vn -0.2949 0.9555 -0.0039
vn -0.2924 -0.2144 -0.9319
vn -0.2921 -0.8608 -0.4168
vn -0.2930 -0.8636 0.4103
vn -0.2946 -0.2160 0.9309
vn -0.2961 0.5962 0.7462
vn -1.0000 -0.0039 -0.0039
vn -0.2949 0.9555 -0.0040
vn -0.2925 -0.2144 -0.9319
vn -0.2931 -0.8636 0.4103
vn -0.2946 -0.2161 0.9309
usemtl Material.000001
s 1
f 1/1/1 2/2/1 3/3/2
f 3/3/2 4/4/3 1/1/1
f 4/4/3 3/3/2 5/5/4
f 5/5/4 6/6/5 4/4/3
f 7/7/5 8/8/5 9/9/6
f 9/9/6 10/10/7 7/7/5
f 10/10/7 9/9/6 2/2/1
f 2/2/1 1/1/1 10/10/7
f 11/11/8 12/12/9 13/13/10
f 13/13/10 14/14/11 11/11/8
f 13/13/10 12/12/9 15/15/12
f 15/15/12 16/16/13 13/13/10
f 15/15/12 12/12/9 17/17/14
f 11/11/8 18/18/15 12/12/9
f 19/19/16 20/20/9 21/21/10
f 21/21/10 22/22/11 19/19/16
f 21/21/10 20/20/9 23/23/17
f 23/23/17 24/24/13 21/21/10
f 23/23/17 20/20/9 25/25/18
f 19/19/16 26/26/19 20/20/9
f 27/27/20 28/28/21 29/29/22
f 29/29/22 30/30/23 27/27/20
f 29/29/22 28/28/21 31/31/24
f 28/28/21 27/27/20 32/32/25
f 32/32/25 33/33/26 28/28/21
f 27/27/20 34/34/27 32/32/25
f 35/35/28 36/36/21 37/37/22
f 37/37/22 38/38/29 35/35/28
f 37/37/22 36/36/21 39/39/30
f 36/36/21 35/35/28 40/40/25
f 40/40/25 41/41/26 36/36/21
f 35/35/28 42/42/27 40/40/25
f 43/43/25 15/15/12 17/17/14
f 17/17/14 44/44/31 43/43/25
f 44/44/31 17/17/14 12/12/9
f 12/12/9 45/45/21 44/44/31
f 45/45/21 12/12/9 18/18/15
f 18/18/15 46/46/32 45/45/21
f 46/46/32 18/18/15 11/11/8
f 11/11/8 47/47/22 46/46/32
f 47/47/22 11/11/8 14/14/11
f 14/14/11 48/48/23 47/47/22
f 48/48/23 14/14/11 13/13/10
f 13/13/10 49/49/28 48/48/23
f 50/50/33 16/16/13 15/15/12
f 15/15/12 43/43/25 50/50/33
f 49/49/28 13/13/10 16/16/13
f 16/16/13 50/50/33 49/49/28
f 51/51/25 23/23/17 25/25/18
f 25/25/18 52/52/26 51/51/25
f 52/52/26 25/25/18 20/20/9
f 20/20/9 53/53/21 52/52/26
f 53/53/21 20/20/9 26/26/19
f 26/26/19 54/54/34 53/53/21
f 54/54/34 26/26/19 19/19/16
f 19/19/16 55/55/35 54/54/34
f 55/55/35 19/19/16 22/22/11
f 22/22/11 56/56/23 55/55/35
f 56/56/23 22/22/11 21/21/10
f 21/21/10 57/57/28 56/56/23
f 58/58/36 24/24/13 23/23/17
f 23/23/17 51/51/25 58/58/36
f 57/57/28 21/21/10 24/24/13
f 24/24/13 58/58/36 57/57/28
f 62/59/8 63/60/37 64/61/38
f 64/61/38 65/62/39 62/59/8
f 64/61/38 63/60/37 66/63/12
f 66/63/12 67/64/13 64/61/38
f 66/63/12 63/60/37 68/65/40
f 62/59/8 69/66/15 63/60/37
f 70/67/28 71/68/21 72/69/22
f 72/69/22 73/70/23 70/67/28
f 72/69/22 71/68/21 74/71/32
f 71/68/21 70/67/28 75/72/25
f 75/72/25 76/73/26 71/68/21
f 70/67/28 77/74/41 75/72/25
f 78/75/25 66/63/12 68/65/40
f 68/65/40 79/76/26 78/75/25
f 79/76/26 68/65/40 63/60/37
f 63/60/37 80/77/42 79/76/26
f 80/77/42 63/60/37 69/66/15
f 69/66/15 81/78/32 80/77/42
f 81/78/32 69/66/15 62/59/8
f 62/59/8 82/79/22 81/78/32
f 82/79/22 62/59/8 65/62/39
f 65/62/39 83/80/23 82/79/22
f 83/80/23 65/62/39 64/61/38
f 64/61/38 84/81/28 83/80/23
f 85/82/27 67/64/13 66/63/12
f 66/63/12 78/75/25 85/82/27
f 84/81/28 64/61/38 67/64/13
f 67/64/13 85/82/27 84/81/28
f 86/83/43 87/84/44 88/85/45
f 86/83/43 89/86/46 87/84/44
f 86/83/43 90/87/47 89/86/46
f 86/83/43 91/88/48 90/87/47
f 86/83/43 92/89/49 91/88/48
f 86/83/43 93/90/50 92/89/49
f 86/83/43 88/85/45 93/90/50
f 94/91/51 95/92/52 88/85/45
f 88/85/45 87/84/44 94/91/51
f 96/93/53 94/91/51 87/84/44
f 87/84/44 89/86/46 96/93/53
f 97/94/54 96/93/53 89/86/46
f 89/86/46 90/87/47 97/94/54
f 98/95/55 97/94/54 90/87/47
f 90/87/47 91/88/48 98/95/55
f 99/96/56 98/95/55 91/88/48
f 91/88/48 92/89/49 99/96/56
f 100/97/57 99/96/56 92/89/49
f 92/89/49 93/90/50 100/97/57
f 95/92/52 100/97/57 93/90/50
f 93/90/50 88/85/45 95/92/52
f 101/98/58 102/99/59 103/100/51
f 101/98/58 103/100/51 104/101/60
f 101/98/58 104/101/60 105/102/54
f 101/98/58 105/102/54 106/103/61
f 101/98/58 106/103/61 107/104/62
f 101/98/58 107/104/62 108/105/57
f 101/98/58 108/105/57 102/99/59
