# exported with NifSkope

mtllib Eyepatch.mtl

# Eyepatch001RIGHTEYE

g Eyepatch001RIGHTEYE
usemtl Material.000001

v -0.40771484375 8.078125 2.625
v -0.5751953125 8.2109375 3.23828125
v -2.1875 7.796875 3.552734375
v -3.54296875 7.0390625 3.587890625
v -4.01953125 6.4765625 3.5
v -4.109375 5.98046875 2.9609375
v -4.06640625 5.98828125 1.2490234375
v -3.76953125 6.41015625 0.5791015625
v -3.37890625 6.921875 0.42529296875
v -1.8857421875 7.68359375 1.2607421875
v -0.7373046875 7.9765625 2.01171875
v -2.79296875 7.26171875 0.6533203125
v -0.497314453125 8.1875 2.609375
v -0.6650390625 8.3125 3.22265625
v -2.27734375 7.90234375 3.537109375
v -3.6328125 7.14453125 3.572265625
v -4.109375 6.58203125 3.484375
v -4.19921875 6.0859375 2.943359375
v -4.15625 6.09375 1.2275390625
v -3.857421875 6.515625 0.56103515625
v -3.46875 7.02734375 0.4091796875
v -1.974609375 7.78515625 1.2421875
v -0.826171875 8.078125 1.9970703125
v -2.8828125 7.3671875 0.6376953125
v 5.3125 2.62890625 7.3203125
v 5.03125 3.833984375 7.1328125
v 4.72265625 4.703125 6.8984375
v 4.3203125 5.55078125 6.5703125
v 3.8359375 6.28125 6.22265625
v 3.22265625 7.0234375 5.796875
v 2.453125 7.625 5.3046875
v 1.6220703125 8.0703125 4.7578125
v 0.75341796875 8.3359375 4.17578125
v -0.12646484375 8.4296875 3.576171875
v -0.697265625 8.234375 3.1484375
v -3.990234375 6.21875 1.0537109375
v -4.453125 5.4921875 0.54296875
v -4.61328125 4.51953125 -0.0258026123046875
v -4.72265625 3.451171875 -0.59765625
v -4.80078125 2.271484375 -1.0107421875
v -4.90234375 1 -1.1279296875
v -4.5703125 -0.368896484375 -0.97216796875
v -4.4453125 -1.6953125 -0.55029296875
v -4.1484375 -2.8359375 0.1500244140625
v -3.78515625 -4.00390625 1.0234375
v -3.26171875 -5.015625 1.6806640625
v -2.087890625 -6.1015625 2.39453125
v -0.76025390625 -6.5234375 2.9765625
v 0.43505859375 -6.66796875 3.576171875
v 1.7802734375 -6.34375 4.17578125
v 3.166015625 -5.79296875 4.76953125
v 4.2578125 -4.9765625 5.40234375
v 5.0546875 -3.9375 6.01171875
v 5.51953125 -2.3125 6.69921875
v 5.7265625 -0.82421875 7.08984375
v 5.62109375 0.308837890625 7.25390625
v 5.48046875 1.3583984375 7.3359375
v 5.32421875 2.62890625 7.03125
v 5.08984375 3.833984375 6.84375
v 4.8125 4.703125 6.54296875
v 4.41015625 5.55078125 6.2265625
v 3.923828125 6.28125 5.87890625
v 3.310546875 7.0234375 5.453125
v 2.541015625 7.625 4.9609375
v 1.708984375 8.0703125 4.4140625
v 0.84130859375 8.3359375 3.833984375
v -0.03692626953125 8.4296875 3.232421875
v -0.6064453125 8.1484375 2.806640625
v -3.88671875 6.37109375 0.75341796875
v -4.36328125 5.4921875 0.2001953125
v -4.5234375 4.5234375 -0.356689453125
v -4.62890625 3.470703125 -0.9140625
v -4.8125 2.267578125 -1.361328125
v -4.8125 1.091796875 -1.470703125
v -4.48046875 -0.2420654296875 -1.3154296875
v -4.39453125 -1.673828125 -0.88671875
v -4.05078125 -2.77734375 -0.1641845703125
v -3.697265625 -3.99609375 0.6865234375
v -3.173828125 -5.00390625 1.3359375
v -2.001953125 -6.09375 2.052734375
v -0.68505859375 -6.50390625 2.6328125
v 0.50537109375 -6.66015625 3.232421875
v 1.8505859375 -6.35546875 3.833984375
v 3.234375 -5.8203125 4.421875
v 4.33203125 -5.01171875 5.0625
v 5.1484375 -3.978515625 5.671875
v 5.578125 -2.390625 6.2890625
v 5.7734375 -0.84716796875 6.74609375
v 5.70703125 0.307373046875 6.96484375
v 5.5625 1.357421875 7.046875
v -4.01953125 6.5234375 3.421875
v -4.35546875 5.7890625 3.78125
v -4.63671875 4.98828125 3.97265625
v -4.92578125 4.1015625 4.11328125
v -5.16015625 3.134765625 4.19921875
v -5.49609375 2.107421875 4.23046875
v -5.71484375 1.0537109375 4.19921875
v -5.81640625 0.0168304443359375 4.11328125
v -5.8203125 -0.97900390625 3.97265625
v -5.671875 -1.970703125 3.78125
v -5.25390625 -3.484375 3.544921875
v -4.3671875 -4.546875 3.26953125
v -2.962890625 -5.625 2.966796875
v -1.349609375 -6.25 2.64453125
v -4.05859375 6.3046875 3.080078125
v -4.34765625 5.7890625 3.353515625
v -4.62890625 4.98828125 3.544921875
v -4.91796875 4.1015625 3.685546875
v -5.15625 3.125 3.7734375
v -5.48828125 2.080078125 3.802734375
v -5.70703125 1.0087890625 3.7734375
v -5.80859375 -0.046173095703125 3.685546875
v -5.8125 -1.0751953125 3.544921875
v -5.6640625 -2.123046875 3.353515625
v -5.17578125 -3.5 3.1171875
v -4.3671875 -4.58203125 2.84375
v -2.962890625 -5.5703125 2.5390625
v -1.732421875 -6.15234375 2.3515625
vt 0.84521484375 0.938507080078125
vt 0.751953125 0.9488525390625
vt 0.62353515625 0.75732421875
vt 0.5478515625 0.55810546875
vt 0.53173828125 0.4521484375
vt 0.58544921875 0.3603515625
vt 0.80810546875 0.2958984375
vt 0.92138671875 0.3359375
vt 0.9736328125 0.41845703125
vt 0.9482421875 0.677978515625
vt 0.908203125 0.862548828125
vt 0.98095703125 0.521240234375
vt 0.83740234375 0.9215087890625
vt 0.75390625 0.9326171875
vt 0.63720703125 0.744384765625
vt 0.5654296875 0.55322265625
vt 0.546875 0.458984375
vt 0.59521484375 0.37646484375
vt 0.81103515625 0.3134765625
vt 0.91357421875 0.3515625
vt 0.95849609375 0.423828125
vt 0.9326171875 0.667724609375
vt 0.8955078125 0.84912109375
vt 0.96240234375 0.51611328125
vt 0.44970703125 0.02880859375
vt 0.387939453125 0.02880859375
vt 0.3466796875 0.02880859375
vt 0.304443359375 0.02880859375
vt 0.26416015625 0.02880859375
vt 0.2196044921875 0.02880859375
vt 0.1749267578125 0.02880859375
vt 0.130126953125 0.02880859375
vt 0.08544921875 0.02880859375
vt 0.040771484375 0.02880859375
vt 0.0088043212890625 0.02880859375
vt 0.0118408203125 0.06640625
vt 0.041900634765625 0.06640625
vt 0.0736083984375 0.06640625
vt 0.1072998046875 0.06640625
vt 0.144775390625 0.06640625
vt 0.1746826171875 0.06640625
vt 0.2388916015625 0.06640625
vt 0.30517578125 0.06640625
vt 0.346435546875 0.06640625
vt 0.388427734375 0.06640625
vt 0.4560546875 0.06640625
vt 0.52734375 0.06640625
vt 0.99365234375 0.02880859375
vt 0.94384765625 0.02880859375
vt 0.89208984375 0.02880859375
vt 0.83935546875 0.02880859375
vt 0.78662109375 0.02880859375
vt 0.73095703125 0.02880859375
vt 0.66064453125 0.02880859375
vt 0.59521484375 0.02880859375
vt 0.54736328125 0.02880859375
vt 0.5029296875 0.02880859375
vt 0.44970703125 0.00927734375
vt 0.387939453125 0.00927734375
vt 0.3466796875 0.00927734375
vt 0.304443359375 0.00927734375
vt 0.26416015625 0.00927734375
vt 0.2196044921875 0.00927734375
vt 0.1749267578125 0.00927734375
vt 0.130126953125 0.00927734375
vt 0.08544921875 0.00927734375
vt 0.040771484375 0.00927734375
vt 0.0088043212890625 0.00927734375
vt 0.0118408203125 0.046875
vt 0.041900634765625 0.046875
vt 0.0736083984375 0.046875
vt 0.1072998046875 0.046875
vt 0.144775390625 0.046875
vt 0.1746826171875 0.046875
vt 0.2388916015625 0.046875
vt 0.30517578125 0.046875
vt 0.346435546875 0.046875
vt 0.388427734375 0.046875
vt 0.4560546875 0.046875
vt 0.52734375 0.046875
vt 0.99365234375 0.00927734375
vt 0.94384765625 0.00927734375
vt 0.89208984375 0.00927734375
vt 0.83935546875 0.00927734375
vt 0.78662109375 0.00927734375
vt 0.73095703125 0.00927734375
vt 0.66064453125 0.00927734375
vt 0.59521484375 0.00927734375
vt 0.54736328125 0.00927734375
vt 0.5029296875 0.00927734375
vt 0.01262664794921875 0.10205078125
vt 0.0418701171875 0.10205078125
vt 0.0750732421875 0.10205078125
vt 0.111083984375 0.10205078125
vt 0.1484375 0.10205078125
vt 0.1871337890625 0.10205078125
vt 0.225830078125 0.10205078125
vt 0.263671875 0.10205078125
vt 0.30029296875 0.10205078125
vt 0.337158203125 0.10205078125
vt 0.381591796875 0.10205078125
vt 0.442138671875 0.10205078125
vt 0.50341796875 0.10205078125
vt 0.56689453125 0.10205078125
vt 0.01262664794921875 0.08642578125
vt 0.0418701171875 0.08642578125
vt 0.0750732421875 0.08642578125
vt 0.111083984375 0.08642578125
vt 0.1484375 0.08642578125
vt 0.1871337890625 0.08642578125
vt 0.225830078125 0.08642578125
vt 0.263671875 0.08642578125
vt 0.30029296875 0.08642578125
vt 0.337158203125 0.08642578125
vt 0.381591796875 0.08642578125
vt 0.442138671875 0.08642578125
vt 0.50341796875 0.08642578125
vt 0.56689453125 0.08642578125
vn 0.76470589637756348 0.63137257099151611 -0.12156862765550613
vn 0.25490197539329529 0.35686275362968445 0.89803922176361084
vn 0.019607843831181526 0.16078431904315948 0.9843137264251709
vn -0.10588235408067703 0.058823529630899429 0.99215686321258545
vn -0.54509806632995605 -0.3490196168422699 0.76470589637756348
vn -0.76470589637756348 -0.63921570777893066 0.074509806931018829
vn -0.69411766529083252 -0.64705884456634521 -0.32549020648002625
vn -0.28627452254295349 -0.3803921639919281 -0.88235294818878174
vn 0.18431372940540314 0.011764706112444401 -0.9843137264251709
vn 0.46666666865348816 0.27058824896812439 -0.84313726425170898
vn 0.61568629741668701 0.42745098471641541 -0.66274511814117432
vn 0.41960784792900085 0.22352941334247589 -0.88235294818878174
vn 0.40392157435417175 0.87450981140136719 -0.27058824896812439
vn -0.16078431904315948 0.9843137264251709 -0.058823529630899429
vn -0.3333333432674408 0.94509804248809814 -0.035294119268655777
vn -0.5215686559677124 0.85098040103912354 -0.019607843831181526
vn -0.85098040103912354 0.52941179275512695 -0.035294119268655777
vn -0.9686274528503418 0.25490197539329529 -0.019607843831181526
vn -0.99215686321258545 0.090196080505847931 -0.08235294371843338
vn -0.89019608497619629 0.43529412150382996 -0.12156862765550613
vn -0.68627452850341797 0.71764707565307617 -0.090196080505847931
vn -0.3490196168422699 0.92941176891326904 -0.11372549086809158
vn -0.16862745583057404 0.9686274528503418 -0.16862745583057404
vn -0.4117647111415863 0.90588235855102539 -0.098039217293262482
vn 0.97647058963775635 0.19215686619281769 0.090196080505847931
vn 0.92156863212585449 0.32549020648002625 0.20000000298023224
vn 0.86666667461395264 0.45098039507865906 0.22352941334247589
vn 0.79607844352722168 0.56862747669219971 0.20784313976764679
vn 0.72549021244049072 0.66274511814117432 0.18431372940540314
vn 0.60784316062927246 0.78039216995239258 0.15294118225574493
vn 0.45882353186607361 0.88235294818878174 0.12156862765550613
vn 0.30980393290519714 0.94509804248809814 0.074509806931018829
vn 0.14509804546833038 0.99215686321258545 0.035294119268655777
vn -0.11372549086809158 0.99215686321258545 -0.098039217293262482
vn -0.12156862765550613 0.9529411792755127 -0.27058824896812439
vn -0.81960785388946533 0.56078433990478516 -0.11372549086809158
vn -0.88235294818878174 0.40392157435417175 -0.23137255012989044
vn -0.93725490570068359 0.25490197539329529 -0.25490197539329529
vn -0.9686274528503418 0.17647059261798859 -0.16078431904315948
vn -1 0.050980392843484879 -0.058823529630899429
vn -0.94509804248809814 -0.14509804546833038 -0.29411765933036804
vn -0.94509804248809814 -0.18431372940540314 -0.27058824896812439
vn -0.92156863212585449 -0.31764706969261169 -0.21568627655506134
vn -0.84313726425170898 -0.45098039507865906 -0.30196079611778259
vn -0.81960785388946533 -0.5215686559677124 -0.22352941334247589
vn -0.66274511814117432 -0.72549021244049072 -0.19215686619281769
vn -0.3960784375667572 -0.90588235855102539 -0.12941177189350128
vn -0.15294118225574493 -0.9843137264251709 -0.08235294371843338
vn 0.11372549086809158 -0.99215686321258545 0.019607843831181526
vn 0.27843138575553894 -0.9529411792755127 0.10588235408067703
vn 0.44313725829124451 -0.88235294818878174 0.16862745583057404
vn 0.63137257099151611 -0.74117648601531982 0.23137255012989044
vn 0.85882353782653809 -0.45098039507865906 0.25490197539329529
vn 0.9529411792755127 -0.23921568691730499 0.17647059261798859
vn 0.9843137264251709 -0.050980392843484879 0.17647059261798859
vn 0.9529411792755127 0.090196080505847931 0.27843138575553894
vn 0.9686274528503418 0.14509804546833038 0.19215686619281769
vn 0.97647058963775635 0.16862745583057404 0.12156862765550613
vn 0.9529411792755127 0.26274511218070984 0.13725490868091583
vn 0.89019608497619629 0.4117647111415863 0.20784313976764679
vn 0.82745099067687988 0.5215686559677124 0.21568627655506134
vn 0.74901962280273438 0.63921570777893066 0.19215686619281769
vn 0.65490198135375977 0.73333334922790527 0.16862745583057404
vn 0.5058823823928833 0.85098040103912354 0.12941177189350128
vn 0.364705890417099 0.92941176891326904 0.090196080505847931
vn 0.20000000298023224 0.97647058963775635 0.050980392843484879
vn -0.035294119268655777 1 -0.011764706112444401
vn -0.25490197539329529 0.94509804248809814 -0.18431372940540314
vn -0.86666667461395264 0.49803921580314636 -0.043137256056070328
vn -0.86666667461395264 0.47450980544090271 -0.16078431904315948
vn -0.92941176891326904 0.27058824896812439 -0.24705882370471954
vn -0.93725490570068359 0.23137255012989044 -0.26274511218070984
vn -0.99215686321258545 0.098039217293262482 -0.066666670143604279
vn -0.9843137264251709 -0.066666670143604279 -0.18431372940540314
vn -0.92156863212585449 -0.22352941334247589 -0.31764706969261169
vn -0.9529411792755127 -0.22352941334247589 -0.20784313976764679
vn -0.85882353782653809 -0.43529412150382996 -0.28627452254295349
vn -0.82745099067687988 -0.49019607901573181 -0.26274511218070984
vn -0.72549021244049072 -0.65490198135375977 -0.20784313976764679
vn -0.51372551918029785 -0.84313726425170898 -0.15294118225574493
vn -0.20784313976764679 -0.97647058963775635 -0.090196080505847931
vn 0.019607843831181526 -1 -0.027450980618596077
vn 0.24705882370471954 -0.9686274528503418 0.066666670143604279
vn 0.3803921639919281 -0.91372549533843994 0.13725490868091583
vn 0.57647061347961426 -0.79607844352722168 0.20000000298023224
vn 0.78039216995239258 -0.56862747669219971 0.27058824896812439
vn 0.92941176891326904 -0.29411765933036804 0.21568627655506134
vn 0.9843137264251709 -0.12156862765550613 0.15294118225574493
vn 0.9686274528503418 0.058823529630899429 0.23137255012989044
vn 0.9529411792755127 0.13725490868091583 0.27058824896812439
vn -0.90588235855102539 0.4117647111415863 -0.08235294371843338
vn -0.93725490570068359 0.35686275362968445 -0.019607843831181526
vn -0.9529411792755127 0.31764706969261169 -0.019607843831181526
vn -0.9686274528503418 0.25490197539329529 -0.019607843831181526
vn -0.96078431606292725 0.28627452254295349 -0.019607843831181526
vn -0.9686274528503418 0.23921568691730499 -0.035294119268655777
vn -0.99215686321258545 0.13725490868091583 -0.035294119268655777
vn -1 0.035294119268655777 -0.027450980618596077
vn -0.99215686321258545 -0.098039217293262482 0.011764706112444401
vn -0.9686274528503418 -0.26274511218070984 -0.019607843831181526
vn -0.86666667461395264 -0.48235294222831726 -0.08235294371843338
vn -0.64705884456634521 -0.76470589637756348 0.0039215688593685627
vn -0.48235294222831726 -0.87450981140136719 -0.035294119268655777
vn -0.3333333432674408 -0.92941176891326904 0.12941177189350128
vn -0.89803922176361084 0.4117647111415863 -0.16078431904315948
vn -0.92156863212585449 0.3803921639919281 -0.058823529630899429
vn -0.94509804248809814 0.31764706969261169 -0.019607843831181526
vn -0.96078431606292725 0.28627452254295349 -0.019607843831181526
vn -0.9686274528503418 0.26274511218070984 -0.019607843831181526
vn -0.96078431606292725 0.27058824896812439 -0.027450980618596077
vn -0.9843137264251709 0.16862745583057404 -0.035294119268655777
vn -1 0.066666670143604279 -0.027450980618596077
vn -1 -0.043137256056070328 -0.011764706112444401
vn -0.9686274528503418 -0.23137255012989044 0.058823529630899429
vn -0.92156863212585449 -0.38823530077934265 -0.066666670143604279
vn -0.70980393886566162 -0.70196080207824707 0.0039215688593685627
vn -0.55294120311737061 -0.83529412746429443 -0.043137256056070328
vn -0.38823530077934265 -0.92156863212585449 0.011764706112444401
f 21/21/21 20/20/20 17/17/17
f 16/16/16 15/15/15 22/22/22
f 15/15/15 14/14/14 23/23/23
f 13/13/13 23/23/23 14/14/14
f 18/18/18 17/17/17 20/20/20
f 15/15/15 23/23/23 22/22/22
f 16/16/16 22/22/22 24/24/24
f 18/18/18 20/20/20 19/19/19
f 21/21/21 16/16/16 24/24/24
f 21/21/21 17/17/17 16/16/16
f 9/9/9 8/8/8 21/21/21
f 20/20/20 21/21/21 8/8/8
f 4/4/4 3/3/3 16/16/16
f 15/15/15 16/16/16 3/3/3
f 3/3/3 2/2/2 15/15/15
f 14/14/14 15/15/15 2/2/2
f 1/1/1 11/11/11 13/13/13
f 23/23/23 13/13/13 11/11/11
f 2/2/2 1/1/1 14/14/14
f 13/13/13 14/14/14 1/1/1
f 7/7/7 6/6/6 19/19/19
f 18/18/18 19/19/19 6/6/6
f 6/6/6 5/5/5 18/18/18
f 17/17/17 18/18/18 5/5/5
f 11/11/11 10/10/10 23/23/23
f 22/22/22 23/23/23 10/10/10
f 10/10/10 12/12/12 22/22/22
f 24/24/24 22/22/22 12/12/12
f 8/8/8 7/7/7 20/20/20
f 19/19/19 20/20/20 7/7/7
f 12/12/12 9/9/9 24/24/24
f 21/21/21 24/24/24 9/9/9
f 5/5/5 4/4/4 17/17/17
f 16/16/16 17/17/17 4/4/4
f 26/26/26 25/25/25 59/59/59
f 58/58/58 59/59/59 25/25/25
f 27/27/27 26/26/26 60/60/60
f 59/59/59 60/60/60 26/26/26
f 28/28/28 27/27/27 61/61/61
f 60/60/60 61/61/61 27/27/27
f 29/29/29 28/28/28 62/62/62
f 61/61/61 62/62/62 28/28/28
f 30/30/30 29/29/29 63/63/63
f 62/62/62 63/63/63 29/29/29
f 31/31/31 30/30/30 64/64/64
f 63/63/63 64/64/64 30/30/30
f 32/32/32 31/31/31 65/65/65
f 64/64/64 65/65/65 31/31/31
f 33/33/33 32/32/32 66/66/66
f 65/65/65 66/66/66 32/32/32
f 34/34/34 33/33/33 67/67/67
f 66/66/66 67/67/67 33/33/33
f 35/35/35 34/34/34 68/68/68
f 67/67/67 68/68/68 34/34/34
f 37/37/37 36/36/36 70/70/70
f 69/69/69 70/70/70 36/36/36
f 38/38/38 37/37/37 71/71/71
f 70/70/70 71/71/71 37/37/37
f 39/39/39 38/38/38 72/72/72
f 71/71/71 72/72/72 38/38/38
f 40/40/40 39/39/39 73/73/73
f 72/72/72 73/73/73 39/39/39
f 41/41/41 40/40/40 74/74/74
f 73/73/73 74/74/74 40/40/40
f 42/42/42 41/41/41 75/75/75
f 74/74/74 75/75/75 41/41/41
f 43/43/43 42/42/42 76/76/76
f 75/75/75 76/76/76 42/42/42
f 44/44/44 43/43/43 77/77/77
f 76/76/76 77/77/77 43/43/43
f 45/45/45 44/44/44 78/78/78
f 77/77/77 78/78/78 44/44/44
f 46/46/46 45/45/45 79/79/79
f 78/78/78 79/79/79 45/45/45
f 47/47/47 46/46/46 80/80/80
f 79/79/79 80/80/80 46/46/46
f 48/48/48 47/47/47 81/81/81
f 80/80/80 81/81/81 47/47/47
f 49/49/49 48/48/48 82/82/82
f 81/81/81 82/82/82 48/48/48
f 50/50/50 49/49/49 83/83/83
f 82/82/82 83/83/83 49/49/49
f 51/51/51 50/50/50 84/84/84
f 83/83/83 84/84/84 50/50/50
f 52/52/52 51/51/51 85/85/85
f 84/84/84 85/85/85 51/51/51
f 53/53/53 52/52/52 86/86/86
f 85/85/85 86/86/86 52/52/52
f 54/54/54 53/53/53 87/87/87
f 86/86/86 87/87/87 53/53/53
f 55/55/55 54/54/54 88/88/88
f 87/87/87 88/88/88 54/54/54
f 56/56/56 55/55/55 89/89/89
f 88/88/88 89/89/89 55/55/55
f 57/57/57 56/56/56 90/90/90
f 89/89/89 90/90/90 56/56/56
f 25/25/25 57/57/57 58/58/58
f 90/90/90 58/58/58 57/57/57
f 92/92/92 91/91/91 106/106/106
f 105/105/105 106/106/106 91/91/91
f 93/93/93 92/92/92 107/107/107
f 106/106/106 107/107/107 92/92/92
f 94/94/94 93/93/93 108/108/108
f 107/107/107 108/108/108 93/93/93
f 95/95/95 94/94/94 109/109/109
f 108/108/108 109/109/109 94/94/94
f 96/96/96 95/95/95 110/110/110
f 109/109/109 110/110/110 95/95/95
f 97/97/97 96/96/96 111/111/111
f 110/110/110 111/111/111 96/96/96
f 98/98/98 97/97/97 112/112/112
f 111/111/111 112/112/112 97/97/97
f 99/99/99 98/98/98 113/113/113
f 112/112/112 113/113/113 98/98/98
f 100/100/100 99/99/99 114/114/114
f 113/113/113 114/114/114 99/99/99
f 101/101/101 100/100/100 115/115/115
f 114/114/114 115/115/115 100/100/100
f 102/102/102 101/101/101 116/116/116
f 115/115/115 116/116/116 101/101/101
f 103/103/103 102/102/102 117/117/117
f 116/116/116 117/117/117 102/102/102
f 104/104/104 103/103/103 118/118/118
f 117/117/117 118/118/118 103/103/103
