# exported with NifSkope

mtllib MinigunAmmoBelt.mtl

# AmmoBelt:0

g AmmoBelt:0
usemtl Material.000001

v 0.016988277435302734 23.270971298217773 -3.7899293899536133
v 0.016988277435302734 16.819799423217773 -3.7899293899536133
v 0.49745702743530273 16.819799423217773 -4.9383668899536133
v 0.49745702743530273 23.270971298217773 -4.9383668899536133
v 1.1341757774353027 16.819799423217773 -6.3641481399536133
v 1.1341757774353027 23.270971298217773 -6.3641481399536133
v 1.8216757774353027 16.819799423217773 -7.7586793899536133
v 1.8216757774353027 23.270971298217773 -7.7625856399536133
v 2.5716757774353027 16.811010360717773 -9.1727418899536133
v 2.5794882774353027 23.263158798217773 -9.0828981399536133
v 3.4154257774353027 16.823705673217773 -10.598523139953613
v 3.4232382774353027 23.267065048217773 -10.297741889953613
v 4.3216757774353027 16.891088485717773 -12.047741889953613
v 4.3294882774353027 23.313940048217773 -11.471570014953613
v 5.2279257774353027 17.038549423217773 -13.518445014953613
v 5.2357382774353027 23.427221298217773 -12.634655952453613
v 6.0091757774353027 17.277807235717773 -15.090710639953613
v 6.0091757774353027 23.606908798217773 -13.861828804016113
v 6.6654257774353027 17.617650985717773 -16.733287811279297
v 6.6732382774353027 23.860815048217773 -15.115124702453613
v 7.2591757774353027 18.064672470092773 -18.395397186279297
v 7.1654257774353027 24.192846298217773 -16.391490936279297
v 7.7669882774353027 18.650365829467773 -20.071178436279297
v 7.5091757774353027 24.630346298217773 -17.678600311279297
v 8.1654262542724609 19.412572860717773 -21.770397186279297
v 7.7435507774353027 25.181127548217773 -18.922740936279297
v 8.4544887542724609 20.340307235717773 -23.446178436279297
v 7.8451132774353027 25.837377548217773 -20.137584686279297
v 8.5716762542724609 21.394018173217773 -25.008678436279297
v 7.8294882774353027 26.595190048217773 -21.274303436279297
v 7.7513632774353027 27.446752548217773 -22.289928436279297
v 8.5951137542724609 22.603002548217773 -26.453990936279297
v 8.4544887542724609 23.985815048217773 -27.836803436279297
v 7.5951132774353027 28.376440048217773 -23.203990936279297
v 6.9388632774353027 30.470190048217773 -24.758678436279297
v 7.6498007774353027 27.149877548217773 -30.235240936279297
v 6.9310507774353027 28.806127548217773 -31.157115936279297
v 6.4232382774353027 31.563940048217773 -25.352428436279297
v 7.3373007774353027 29.392065048217773 -24.032115936279297
v 8.1576137542724609 25.517065048217773 -29.110240936279297
v 6.0951132774353027 30.368627548217773 -31.844615936279297
v 5.7201132774353027 32.603004455566406 -25.805553436279297
v 5.1810507774353027 31.759252548217773 -32.313365936279297
v 4.8607382774353027 33.618629455566406 -26.141490936279297
v 4.0482382774353027 32.946754455566406 -32.641490936279297
v 3.7357382774353027 34.532691955566406 -26.399303436279297
v 2.7357382774353027 34.032691955566406 -32.922740936279297
v 2.4076132774353027 35.235816955566406 -26.586803436279297
v 0.97792577743530273 35.720191955566406 -26.719615936279297
v 1.2748007774353027 34.970191955566406 -33.110240936279297
v -0.26035547256469727 35.673316955566406 -33.250865936279297
v -0.54160547256469727 36.063941955566406 -26.813365936279297
v -1.8384804725646973 36.157691955566406 -33.344615936279297
v -2.0962929725646973 36.376441955566406 -26.907115936279297
v -3.5220742225646973 36.438941955566406 -33.422740936279297
v -3.6334023475646973 36.517066955566406 -26.977428436279297
v -5.1539101600646973 36.532691955566406 -33.438365936279297
v -5.1568398475646973 36.532691955566406 -26.977428436279297
v -6.3834023475646973 36.548316955566406 -33.422740936279297
v -6.3834023475646973 36.548316955566406 -26.969615936279297
v -0.35801172256469727 23.270971298217773 -3.9461793899536133
v 0.12636327743530273 23.270971298217773 -5.1024293899536133
v 0.12636327743530273 16.819799423217773 -5.1024293899536133
v -0.35801172256469727 16.819799423217773 -3.9461793899536133
v 0.77089452743530273 23.270971298217773 -6.5360231399536133
v 0.77089452743530273 16.819799423217773 -6.5360231399536133
v 1.4701132774353027 23.270971298217773 -7.9500856399536133
v 1.4623007774353027 16.819799423217773 -7.9422731399536133
v 2.2357382774353027 23.263158798217773 -9.3016481399536133
v 2.2201132774353027 16.813940048217773 -9.3719606399536133
v 3.1029257774353027 23.278783798217773 -10.537976264953613
v 3.0716757774353027 16.834447860717773 -10.809460639953613
v 4.0091757774353027 23.337377548217773 -11.717663764953613
v 3.9779257774353027 16.910619735717773 -12.258679389953613
v 4.8998007774353027 23.458471298217773 -12.864148139953613
v 4.8685507774353027 17.065893173217773 -13.711316108703613
v 5.6576132774353027 23.645971298217773 -14.058934211730957
v 5.6341757774353027 17.309057235717773 -15.251843452453613
v 6.2982382774353027 23.899877548217773 -15.274304389953613
v 6.2904257774353027 17.653295516967773 -16.870006561279297
v 6.7826132774353027 24.224096298217773 -16.508678436279297
v 6.8763632774353027 18.096899032592773 -18.512584686279297
v 7.1107382774353027 24.649877548217773 -17.760631561279297
v 7.3763632774353027 18.672277450561523 -20.168834686279297
v 7.3451132774353027 25.177221298217773 -18.981334686279297
v 7.7669882774353027 19.421361923217773 -21.848522186279297
v 7.4388632774353027 25.813940048217773 -20.164928436279297
v 8.0560512542724609 20.329565048217773 -23.500865936279297
v 7.4232382774353027 26.552221298217773 -21.289928436279297
v 8.1654262542724609 21.364721298217773 -25.047740936279297
v 7.3529257774353027 27.384252548217773 -22.297740936279297
v 7.2044882774353027 28.298315048217773 -23.196178436279297
v 8.0560512542724609 23.915502548217773 -27.844615936279297
v 8.1966762542724609 22.554174423217773 -26.485240936279297
v 6.5560507774353027 30.329565048217773 -24.727428436279297
v 6.0638632774353027 31.384252548217773 -25.297740936279297
v 6.5638632774353027 28.649877548217773 -31.110240936279297
v 7.2669882774353027 27.024877548217773 -30.203990936279297
v 6.9544882774353027 29.282690048217773 -24.008678436279297
v 7.7591757774353027 25.423315048217773 -29.102428436279297
v 5.3919882774353027 32.376441955566406 -25.743053436279297
v 5.7435507774353027 30.173315048217773 -31.782115936279297
v 4.5716757774353027 33.337379455566406 -26.071178436279297
v 4.8529257774353027 31.517065048217773 -32.250865936279297
v 3.5091757774353027 34.204566955566406 -26.328990936279297
v 3.7669882774353027 32.657691955566406 -32.594615936279297
v 2.2513632774353027 34.876441955566406 -26.532115936279297
v 2.4935507774353027 33.712379455566406 -32.875865936279297
v 0.86464452743530273 35.329566955566406 -26.680553436279297
v -0.62754297256469727 35.673316955566406 -26.797740936279297
v -0.40488672256469727 35.298316955566406 -33.235240936279297
v 1.0755820274353027 34.610816955566406 -33.078990936279297
v -2.1548867225646973 35.970191955566406 -26.899303436279297
v -1.9322304725646973 35.751441955566406 -33.344615936279297
v -3.6548867225646973 36.110816955566406 -26.969615936279297
v -3.5689492225646973 36.048316955566406 -33.422740936279297
v -5.1607460975646973 36.126441955566406 -26.977428436279297
v -5.1666054725646973 36.142066955566406 -33.438365936279297
v -6.3855996131896973 36.142066955566406 -26.969615936279297
v -6.3853554725646973 36.142066955566406 -33.422740936279297
vt 0.004711151123046875 1
vt 0.004711151123046875 0.001953125
vt 0.6953125 0.001953125
vt 0.6953125 1
vt 1.5576171875 0.001953125
vt 1.5576171875 1
vt 2.419921875 0.001953125
vt 2.419921875 1
vt 3.283203125 0.001953125
vt 3.283203125 1
vt 4.15234375 0.001953125
vt 4.15234375 1
vt 5.03125 0.001953125
vt 5.03125 1
vt 5.91796875 0.001953125
vt 5.91796875 1
vt 6.8125 0.001953125
vt 6.8125 1
vt 7.70703125 0.001953125
vt 7.70703125 1
vt 8.6015625 0.001953125
vt 8.6015625 1
vt 9.5 0.001953125
vt 9.5 1
vt 10.3984375 0.001953125
vt 10.3984375 1
vt 11.3046875 0.001953125
vt 11.3046875 1
vt 12.1953125 0.001953125
vt 12.1953125 1
vt 13.0703125 1
vt 13.0703125 0.001953125
vt 13.96875 0.001953125
vt 13.96875 1
vt 15.8046875 1
vt 15.8046875 0.001953125
vt 16.71875 0.001953125
vt 16.71875 1
vt 14.875 1
vt 14.875 0.001953125
vt 17.59375 0.001953125
vt 17.59375 1
vt 18.453125 0.001953125
vt 18.453125 1
vt 19.3125 0.001953125
vt 19.3125 1
vt 20.203125 0.001953125
vt 20.203125 1
vt 21.109375 1
vt 21.109375 0.001953125
vt 22 0.001953125
vt 22 1
vt 22.890625 0.001953125
vt 22.890625 1
vt 23.796875 0.001953125
vt 23.796875 1
vt 24.671875 0.001953125
vt 24.671875 1
vt 25.359375 0.001953125
vt 25.359375 1
vt 0.004711151123046875 1
vt 0.6953125 1
vt 0.6953125 0.001953125
vt 0.004711151123046875 0.001953125
vt 1.5576171875 1
vt 1.5576171875 0.001953125
vt 2.419921875 1
vt 2.419921875 0.001953125
vt 3.283203125 1
vt 3.283203125 0.001953125
vt 4.15234375 1
vt 4.15234375 0.001953125
vt 5.03125 1
vt 5.03125 0.001953125
vt 5.91796875 1
vt 5.91796875 0.001953125
vt 6.8125 1
vt 6.8125 0.001953125
vt 7.70703125 1
vt 7.70703125 0.001953125
vt 8.6015625 1
vt 8.6015625 0.001953125
vt 9.5 1
vt 9.5 0.001953125
vt 10.3984375 1
vt 10.3984375 0.001953125
vt 11.3046875 1
vt 11.3046875 0.001953125
vt 12.1953125 1
vt 12.1953125 0.001953125
vt 13.0703125 1
vt 13.96875 1
vt 13.96875 0.001953125
vt 13.0703125 0.001953125
vt 15.8046875 1
vt 16.71875 1
vt 16.71875 0.001953125
vt 15.8046875 0.001953125
vt 14.875 1
vt 14.875 0.001953125
vt 17.59375 1
vt 17.59375 0.001953125
vt 18.453125 1
vt 18.453125 0.001953125
vt 19.3125 1
vt 19.3125 0.001953125
vt 20.203125 1
vt 20.203125 0.001953125
vt 21.109375 1
vt 22 1
vt 22 0.001953125
vt 21.109375 0.001953125
vt 22.890625 1
vt 22.890625 0.001953125
vt 23.796875 1
vt 23.796875 0.001953125
vt 24.671875 1
vt 24.671875 0.001953125
vt 25.359375 1
vt 25.359375 0.001953125
vn 0.92156863212585449 -0.0039215688593685627 0.3803921639919281
vn 0.92156863212585449 -0.0039215688593685627 0.3803921639919281
vn 0.91372549533843994 -0.0039215688593685627 0.3960784375667572
vn 0.91372549533843994 -0.0039215688593685627 0.3960784375667572
vn 0.89803922176361084 -0.0039215688593685627 0.41960784792900085
vn 0.89803922176361084 -0.0039215688593685627 0.41960784792900085
vn 0.89019608497619629 -0.0039215688593685627 0.45098039507865906
vn 0.88235294818878174 -0.0039215688593685627 0.45882353186607361
vn 0.86666667461395264 -0.011764706112444401 0.49019607901573181
vn 0.84313726425170898 -0.019607843831181526 0.5215686559677124
vn 0.85098040103912354 -0.019607843831181526 0.5215686559677124
vn 0.80392158031463623 -0.043137256056070328 0.58431375026702881
vn 0.84313726425170898 -0.043137256056070328 0.52941179275512695
vn 0.79607844352722168 -0.074509806931018829 0.60000002384185791
vn 0.86666667461395264 -0.058823529630899429 0.48235294222831726
vn 0.81960785388946533 -0.098039217293262482 0.55294120311737061
vn 0.90588235855102539 -0.074509806931018829 0.40392157435417175
vn 0.86666667461395264 -0.10588235408067703 0.47450980544090271
vn 0.92941176891326904 -0.08235294371843338 0.34117648005485535
vn 0.91372549533843994 -0.10588235408067703 0.38823530077934265
vn 0.9529411792755127 -0.08235294371843338 0.28627452254295349
vn 0.9529411792755127 -0.08235294371843338 0.28627452254295349
vn 0.9686274528503418 -0.058823529630899429 0.23137255012989044
vn 0.97647058963775635 -0.043137256056070328 0.20784313976764679
vn 0.97647058963775635 -0.027450980618596077 0.18431372940540314
vn 0.9843137264251709 0.0039215688593685627 0.14509804546833038
vn 0.9843137264251709 0.019607843831181526 0.12941177189350128
vn 0.99215686321258545 0.066666670143604279 0.08235294371843338
vn 0.99215686321258545 0.066666670143604279 0.090196080505847931
vn 0.9843137264251709 0.11372549086809158 0.050980392843484879
vn 0.9843137264251709 0.15294118225574493 0.027450980618596077
vn 0.9843137264251709 0.10588235408067703 0.058823529630899429
vn 0.9843137264251709 0.16078431904315948 0.011764706112444401
vn 0.97647058963775635 0.20000000298023224 -0.0039215688593685627
vn 0.92941176891326904 0.34117648005485535 -0.08235294371843338
vn 0.94509804248809814 0.30980393290519714 -0.074509806931018829
vn 0.91372549533843994 0.38823530077934265 -0.11372549086809158
vn 0.88235294818878174 0.43529412150382996 -0.12156862765550613
vn 0.96078431606292725 0.26274511218070984 -0.043137256056070328
vn 0.9686274528503418 0.22352941334247589 -0.027450980618596077
vn 0.86666667461395264 0.47450980544090271 -0.13725490868091583
vn 0.81176471710205078 0.55294120311737061 -0.14509804546833038
vn 0.78823530673980713 0.59215688705444336 -0.15294118225574493
vn 0.71764707565307617 0.67058825492858887 -0.15294118225574493
vn 0.68627452850341797 0.70196080207824707 -0.16078431904315948
vn 0.57647061347961426 0.79607844352722168 -0.15294118225574493
vn 0.58431375026702881 0.79607844352722168 -0.14509804546833038
vn 0.41960784792900085 0.89803922176361084 -0.12156862765550613
vn 0.28627452254295349 0.9529411792755127 -0.08235294371843338
vn 0.46666666865348816 0.87450981140136719 -0.10588235408067703
vn 0.34117648005485535 0.92941176891326904 -0.066666670143604279
vn 0.21568627655506134 0.9686274528503418 -0.043137256056070328
vn 0.22352941334247589 0.9686274528503418 -0.035294119268655777
vn 0.14509804546833038 0.9843137264251709 -0.019607843831181526
vn 0.10588235408067703 0.99215686321258545 -0.019607843831181526
vn 0.058823529630899429 0.99215686321258545 -0.011764706112444401
vn 0.027450980618596077 0.99215686321258545 -0.011764706112444401
vn 0.0039215688593685627 0.99215686321258545 -0.0039215688593685627
vn 0.0039215688593685627 0.99215686321258545 -0.0039215688593685627
vn 0.0039215688593685627 0.99215686321258545 -0.0039215688593685627
vn -0.92941176891326904 -0.0039215688593685627 -0.38823530077934265
vn -0.92156863212585449 -0.0039215688593685627 -0.40392157435417175
vn -0.92156863212585449 -0.0039215688593685627 -0.40392157435417175
vn -0.92941176891326904 -0.0039215688593685627 -0.38823530077934265
vn -0.90588235855102539 -0.0039215688593685627 -0.42745098471641541
vn -0.90588235855102539 -0.0039215688593685627 -0.42745098471641541
vn -0.89019608497619629 -0.0039215688593685627 -0.46666666865348816
vn -0.89803922176361084 -0.0039215688593685627 -0.45882353186607361
vn -0.85098040103912354 0.011764706112444401 -0.52941179275512695
vn -0.87450981140136719 0.0039215688593685627 -0.49803921580314636
vn -0.81176471710205078 0.035294119268655777 -0.59215688705444336
vn -0.85882353782653809 0.011764706112444401 -0.52941179275512695
vn -0.80392158031463623 0.066666670143604279 -0.60784316062927246
vn -0.85098040103912354 0.035294119268655777 -0.5372549295425415
vn -0.82745099067687988 0.08235294371843338 -0.56078433990478516
vn -0.87450981140136719 0.050980392843484879 -0.49019607901573181
vn -0.87450981140136719 0.098039217293262482 -0.48235294222831726
vn -0.91372549533843994 0.066666670143604279 -0.4117647111415863
vn -0.92156863212585449 0.098039217293262482 -0.3960784375667572
vn -0.93725490570068359 0.074509806931018829 -0.3490196168422699
vn -0.96078431606292725 0.074509806931018829 -0.29411765933036804
vn -0.96078431606292725 0.074509806931018829 -0.29411765933036804
vn -0.9843137264251709 0.035294119268655777 -0.21568627655506134
vn -0.97647058963775635 0.050980392843484879 -0.23921568691730499
vn -0.99215686321258545 -0.011764706112444401 -0.15294118225574493
vn -0.9843137264251709 0.019607843831181526 -0.19215686619281769
vn -1 -0.074509806931018829 -0.090196080505847931
vn -0.99215686321258545 -0.027450980618596077 -0.13725490868091583
vn -0.99215686321258545 -0.12156862765550613 -0.058823529630899429
vn -1 -0.074509806931018829 -0.098039217293262482
vn -0.99215686321258545 -0.16078431904315948 -0.035294119268655777
vn -0.9843137264251709 -0.20784313976764679 -0.0039215688593685627
vn -0.99215686321258545 -0.16862745583057404 -0.019607843831181526
vn -0.99215686321258545 -0.11372549086809158 -0.066666670143604279
vn -0.93725490570068359 -0.3490196168422699 0.074509806931018829
vn -0.89803922176361084 -0.44313725829124451 0.11372549086809158
vn -0.92156863212585449 -0.3960784375667572 0.10588235408067703
vn -0.9529411792755127 -0.31764706969261169 0.066666670143604279
vn -0.9686274528503418 -0.27058824896812439 0.035294119268655777
vn -0.97647058963775635 -0.23137255012989044 0.019607843831181526
vn -0.81960785388946533 -0.56078433990478516 0.13725490868091583
vn -0.87450981140136719 -0.48235294222831726 0.12941177189350128
vn -0.72549021244049072 -0.67843139171600342 0.14509804546833038
vn -0.79607844352722168 -0.60000002384185791 0.14509804546833038
vn -0.58431375026702881 -0.80392158031463623 0.14509804546833038
vn -0.69411766529083252 -0.70980393886566162 0.15294118225574493
vn -0.42745098471641541 -0.90588235855102539 0.11372549086809158
vn -0.59215688705444336 -0.80392158031463623 0.13725490868091583
vn -0.29411765933036804 -0.96078431606292725 0.066666670143604279
vn -0.22352941334247589 -0.97647058963775635 0.035294119268655777
vn -0.3490196168422699 -0.94509804248809814 0.058823529630899429
vn -0.47450980544090271 -0.88235294818878174 0.098039217293262482
vn -0.15294118225574493 -0.99215686321258545 0.011764706112444401
vn -0.23137255012989044 -0.97647058963775635 0.027450980618596077
vn -0.066666670143604279 -1 0.0039215688593685627
vn -0.11372549086809158 -1 0.011764706112444401
vn -0.011764706112444401 -1 -0.0039215688593685627
vn -0.035294119268655777 -1 0.0039215688593685627
vn -0.011764706112444401 -1 -0.0039215688593685627
vn -0.011764706112444401 -1 -0.0039215688593685627
f 1/1/1 2/2/2 3/3/3
f 3/3/3 4/4/4 1/1/1
f 4/4/4 3/3/3 5/5/5
f 5/5/5 6/6/6 4/4/4
f 6/6/6 5/5/5 7/7/7
f 7/7/7 8/8/8 6/6/6
f 8/8/8 7/7/7 9/9/9
f 9/9/9 10/10/10 8/8/8
f 10/10/10 9/9/9 11/11/11
f 11/11/11 12/12/12 10/10/10
f 12/12/12 11/11/11 13/13/13
f 13/13/13 14/14/14 12/12/12
f 14/14/14 13/13/13 15/15/15
f 15/15/15 16/16/16 14/14/14
f 16/16/16 15/15/15 17/17/17
f 17/17/17 18/18/18 16/16/16
f 18/18/18 17/17/17 19/19/19
f 19/19/19 20/20/20 18/18/18
f 20/20/20 19/19/19 21/21/21
f 21/21/21 22/22/22 20/20/20
f 22/22/22 21/21/21 23/23/23
f 23/23/23 24/24/24 22/22/22
f 24/24/24 23/23/23 25/25/25
f 25/25/25 26/26/26 24/24/24
f 26/26/26 25/25/25 27/27/27
f 27/27/27 28/28/28 26/26/26
f 28/28/28 27/27/27 29/29/29
f 29/29/29 30/30/30 28/28/28
f 30/30/30 29/29/29 32/32/32
f 32/32/32 31/31/31 30/30/30
f 31/31/31 32/32/32 33/33/33
f 33/33/33 34/34/34 31/31/31
f 34/34/34 33/33/33 40/40/40
f 40/40/40 39/39/39 34/34/34
f 39/39/39 40/40/40 36/36/36
f 36/36/36 35/35/35 39/39/39
f 35/35/35 36/36/36 37/37/37
f 37/37/37 38/38/38 35/35/35
f 38/38/38 37/37/37 41/41/41
f 41/41/41 42/42/42 38/38/38
f 42/42/42 41/41/41 43/43/43
f 43/43/43 44/44/44 42/42/42
f 44/44/44 43/43/43 45/45/45
f 45/45/45 46/46/46 44/44/44
f 46/46/46 45/45/45 47/47/47
f 47/47/47 48/48/48 46/46/46
f 48/48/48 47/47/47 50/50/50
f 50/50/50 49/49/49 48/48/48
f 49/49/49 50/50/50 51/51/51
f 51/51/51 52/52/52 49/49/49
f 52/52/52 51/51/51 53/53/53
f 53/53/53 54/54/54 52/52/52
f 54/54/54 53/53/53 55/55/55
f 55/55/55 56/56/56 54/54/54
f 56/56/56 55/55/55 57/57/57
f 57/57/57 58/58/58 56/56/56
f 58/58/58 57/57/57 59/59/59
f 59/59/59 60/60/60 58/58/58
f 63/63/63 64/64/64 61/61/61
f 61/61/61 62/62/62 63/63/63
f 66/66/66 63/63/63 62/62/62
f 62/62/62 65/65/65 66/66/66
f 68/68/68 66/66/66 65/65/65
f 65/65/65 67/67/67 68/68/68
f 70/70/70 68/68/68 67/67/67
f 67/67/67 69/69/69 70/70/70
f 72/72/72 70/70/70 69/69/69
f 69/69/69 71/71/71 72/72/72
f 74/74/74 72/72/72 71/71/71
f 71/71/71 73/73/73 74/74/74
f 76/76/76 74/74/74 73/73/73
f 73/73/73 75/75/75 76/76/76
f 78/78/78 76/76/76 75/75/75
f 75/75/75 77/77/77 78/78/78
f 80/80/80 78/78/78 77/77/77
f 77/77/77 79/79/79 80/80/80
f 82/82/82 80/80/80 79/79/79
f 79/79/79 81/81/81 82/82/82
f 84/84/84 82/82/82 81/81/81
f 81/81/81 83/83/83 84/84/84
f 86/86/86 84/84/84 83/83/83
f 83/83/83 85/85/85 86/86/86
f 88/88/88 86/86/86 85/85/85
f 85/85/85 87/87/87 88/88/88
f 90/90/90 88/88/88 87/87/87
f 87/87/87 89/89/89 90/90/90
f 94/94/94 90/90/90 89/89/89
f 89/89/89 91/91/91 94/94/94
f 93/93/93 94/94/94 91/91/91
f 91/91/91 92/92/92 93/93/93
f 100/100/100 93/93/93 92/92/92
f 92/92/92 99/99/99 100/100/100
f 98/98/98 100/100/100 99/99/99
f 99/99/99 95/95/95 98/98/98
f 97/97/97 98/98/98 95/95/95
f 95/95/95 96/96/96 97/97/97
f 102/102/102 97/97/97 96/96/96
f 96/96/96 101/101/101 102/102/102
f 104/104/104 102/102/102 101/101/101
f 101/101/101 103/103/103 104/104/104
f 106/106/106 104/104/104 103/103/103
f 103/103/103 105/105/105 106/106/106
f 108/108/108 106/106/106 105/105/105
f 105/105/105 107/107/107 108/108/108
f 112/112/112 108/108/108 107/107/107
f 107/107/107 109/109/109 112/112/112
f 111/111/111 112/112/112 109/109/109
f 109/109/109 110/110/110 111/111/111
f 114/114/114 111/111/111 110/110/110
f 110/110/110 113/113/113 114/114/114
f 116/116/116 114/114/114 113/113/113
f 113/113/113 115/115/115 116/116/116
f 118/118/118 116/116/116 115/115/115
f 115/115/115 117/117/117 118/118/118
f 120/120/120 118/118/118 117/117/117
f 117/117/117 119/119/119 120/120/120
