# exported with NifSkope

mtllib Plume.mtl

# wire_000000000.001

g wire_000000000.001
usemtl Material.000001

v 0.1659323126077652 2.6310458183288574 11.409239768981934
v 0.10777495056390762 4.9080042839050293 9.6605424880981445
v 0.048407323658466339 6.585054874420166 12.978042602539063
v -0.023722656071186066 4.9020419120788574 9.6625909805297852
v 0.034434732049703598 2.6250829696655273 11.411287307739258
v 0.0015755093190819025 -7.450294017791748 7.8283653259277344
v -0.04223870113492012 -7.7113957405090332 4.4414410591125488
v 0.040670670568943024 -9.7356863021850586 5.7244067192077637
v -0.012772451154887676 -9.6874990463256836 2.2008662223815918
v 0.087179765105247498 -12.259243965148926 3.8197729587554932
v 0.033979594707489014 -12.218849182128906 0.40051323175430298
v 0.11873412132263184 -9.6818084716796875 2.198599100112915
v 0.072727978229522705 -9.8725090026855469 -0.067231841385364532
v -0.058778613805770874 -9.8781986236572266 -0.064964927732944489
v -0.0018732778262346983 -0.61742657423019409 10.905905723571777
v -0.00014886600547470152 -4.0338606834411621 9.4410276412963867
v 0.10990400612354279 -3.5690197944641113 12.188872337341309
v 0.10858061909675598 -6.8875551223754883 10.62492847442627
v 0.10880701243877411 -10.25586986541748 9.1113319396972656
v 0.13873617351055145 -12.24681282043457 7.0073728561401367
v 0.17216823995113373 -9.7297229766845703 5.722358226776123
v 0.22075650095939636 -7.6994705200195313 4.4373435974121094
v 0.26457071304321289 -7.4383683204650879 7.8242683410644531
v 0.2403046041727066 -10.249906539916992 9.109283447265625
v 0.21300657093524933 -12.96403980255127 10.147934913635254
v 0.21277979016304016 -9.5957231521606445 11.661533355712891
v 0.2186335027217865 -6.4227147102355957 13.274192810058594
v 0.14448760449886322 3.0899238586425781 14.947457313537598
v 0.23967720568180084 -0.14662308990955353 13.799485206604004
v 0.26112192869186401 -0.60550075769424438 10.901808738708496
v 0.24140161275863647 -3.5630569458007813 12.186822891235352
v 0.21995687484741211 -3.1041791439056396 14.838137626647949
v 0.21823249757289886 0.31225448846817017 16.450799942016602
v 0.10817960649728775 -0.1525859534740448 13.801532745361328
v 0.10990400612354279 -3.5690197944641113 12.188872337341309
v 0.21995687484741211 -3.1041791439056396 14.838137626647949
v 0.24140161275863647 -3.5630569458007813 12.186822891235352
v 0.26284629106521606 -4.0219345092773438 9.4369306564331055
v 0.24007821083068848 -6.8815922737121582 10.622880935668945
v 0.21277979016304016 -9.5957231521606445 11.661533355712891
v 0.2403046041727066 -10.249906539916992 9.109283447265625
vt 0.89588427543640137 0.11935561895370483
vt 0.91741776466369629 0.13500058650970459
vt 0.89588427543640137 0.14199721813201904
vt 0.91741776466369629 0.13500058650970459
vt 0.89588427543640137 0.11935561895370483
vt 0.9123343825340271 0.046085655689239502
vt 0.93895125389099121 0.046085655689239502
vt 0.92564284801483154 0.027768194675445557
vt 0.95225965976715088 0.027768194675445557
vt 0.93895125389099121 0.0094507336616516113
vt 0.96556806564331055 0.0094507336616516113
vt 0.95225965976715088 0.027768194675445557
vt 0.97887647151947021 0.027768194675445557
vt 0.97887647151947021 0.027768194675445557
vt 0.89588427543640137 0.09671396017074585
vt 0.90410929918289185 0.071399807929992676
vt 0.88257580995559692 0.078396439552307129
vt 0.89080089330673218 0.053082287311553955
vt 0.89902597665786743 0.027768194675445557
vt 0.9123343825340271 0.0094507336616516113
vt 0.92564284801483154 0.027768194675445557
vt 0.93895125389099121 0.046085655689239502
vt 0.9123343825340271 0.046085655689239502
vt 0.89902597665786743 0.027768194675445557
vt 0.88571751117706299 0.0094507336616516113
vt 0.87749248743057251 0.03476482629776001
vt 0.86926740407943726 0.060078978538513184
vt 0.87435078620910645 0.12635225057601929
vt 0.87435078620910645 0.1037105917930603
vt 0.89588427543640137 0.09671396017074585
vt 0.88257580995559692 0.078396499156951904
vt 0.861042320728302 0.085393130779266357
vt 0.85281729698181152 0.11070722341537476
vt 0.87435078620910645 0.1037105917930603
vt 0.8825758695602417 0.078396499156951904
vt 0.86104238033294678 0.085393130779266357
vt 0.88257580995559692 0.078396499156951904
vt 0.90410929918289185 0.071399807929992676
vt 0.8908008337020874 0.053082287311553955
vt 0.87749242782592773 0.03476482629776001
vt 0.89902591705322266 0.027768194675445557
vn 0.99958640336990356 0.028626753017306328 0.0027467033360153437
vn 0.99959421157836914 0.028260746970772743 0.0035707422066479921
vn 0.00094610376982018352 0.5484655499458313 0.83617264032363892
vn -0.9996681809425354 -0.0063478746451437473 0.024964237585663795
vn -0.99950563907623291 -0.0024720595683902502 0.031343277543783188
vn -0.99926251173019409 -0.025453085079789162 0.028749169781804085
vn -0.9993939995765686 -0.031403683125972748 0.015015171840786934
vn -0.99940645694732666 -0.030885251238942146 0.015259510837495327
vn -0.99936467409133911 -0.031342681497335434 0.016968384385108948
vn 0.0038759585004299879 -0.99996674060821533 -0.0071720490232110023
vn 0.0063478611409664154 -0.99926930665969849 0.037690423429012299
vn 0.99956506490707397 -0.024537442252039909 -0.016358295455574989
vn 0.99962311983108521 -0.02020365372300148 -0.018586141988635063
vn -0.99911832809448242 -0.034974329173564911 0.023224664852023125
vn -0.99911719560623169 -0.011169798672199249 0.040498152375221252
vn -0.99887937307357788 -0.019837202504277229 0.042970430105924606
vn -0.99882727861404419 -0.020447758957743645 0.043886385858058929
vn -0.99882376194000244 -0.020356131717562675 0.044008310884237289
vn -0.99921011924743652 -0.025849269703030586 0.030182914808392525
vn 0.0015869740163907409 -0.99198085069656372 -0.12637807428836823
vn 0.99952435493469238 -0.025422241538763046 -0.017456809058785439
vn 0.99939620494842529 -0.032197237014770508 -0.0130620077252388
vn 0.99988842010498047 -0.014496444724500179 -0.0036012220662087202
vn 0.99988585710525513 -0.013428250327706337 -0.00692775659263134
vn 0.013275964185595512 -0.8644026517868042 0.50262492895126343
vn 0.018860630691051483 -0.42387586832046509 0.90552389621734619
vn 0.019684627652168274 -0.4353201687335968 0.90006047487258911
vn 0.0052493279799818993 0.54040610790252686 0.84138792753219604
vn 0.99990558624267578 0.012543453834950924 0.0056155608035624027
vn 0.99995166063308716 0.0075381672941148281 0.0063174115493893623
vn 0.99995613098144531 -0.0039064362645149231 0.0085148103535175323
vn 0.020264860242605209 -0.42656922340393066 0.9042278528213501
vn 0.017243286594748497 -0.0095829945057630539 0.99980539083480835
vn -0.99913281202316284 -0.010284921154379845 0.040346190333366394
vn -0.99882727861404419 -0.020447758957743645 0.043886385858058929
vn 0.020264860242605209 -0.42656922340393066 0.9042278528213501
vn 0.99995613098144531 -0.0039064362645149231 0.0085148103535175323
vn 0.99995410442352295 -0.0038148714229464531 0.0087894639000296593
vn 0.99994170665740967 -0.0048524565063416958 0.0096438759937882423
vn 0.018860630691051483 -0.42387586832046509 0.90552389621734619
vn 0.99988585710525513 -0.013428250327706337 -0.00692775659263134
f 6/6/6 7/7/7 8/8/8
f 7/7/7 9/9/9 8/8/8
f 8/8/8 9/9/9 10/10/10
f 9/9/9 11/11/11 10/10/10
f 10/10/10 11/11/11 12/12/12
f 11/11/11 13/13/13 12/12/12
f 5/5/5 3/3/3 4/4/4
f 27/27/27 36/36/36 35/35/35
f 35/35/35 36/36/36 34/34/34
f 36/36/36 33/33/33 34/34/34
f 34/34/34 33/33/33 28/28/28
f 33/33/33 29/29/29 28/28/28
f 28/28/28 29/29/29 1/1/1
f 29/29/29 30/30/30 1/1/1
f 30/30/30 37/37/37 38/38/38
f 38/38/38 37/37/37 39/39/39
f 37/37/37 27/27/27 39/39/39
f 39/39/39 27/27/27 40/40/40
f 2/2/2 3/3/3 1/1/1
f 1/1/1 3/3/3 28/28/28
f 3/3/3 5/5/5 28/28/28
f 28/28/28 5/5/5 34/34/34
f 5/5/5 15/15/15 34/34/34
f 34/34/34 15/15/15 35/35/35
f 22/22/22 21/21/21 12/12/12
f 12/12/12 21/21/21 10/10/10
f 21/21/21 20/20/20 10/10/10
f 10/10/10 20/20/20 8/8/8
f 20/20/20 19/19/19 8/8/8
f 8/8/8 19/19/19 6/6/6
f 19/19/19 18/18/18 6/6/6
f 6/6/6 18/18/18 16/16/16
f 18/18/18 17/17/17 16/16/16
f 16/16/16 17/17/17 15/15/15
f 17/17/17 18/18/18 27/27/27
f 27/27/27 18/18/18 26/26/26
f 18/18/18 19/19/19 26/26/26
f 26/26/26 19/19/19 25/25/25
f 19/19/19 20/20/20 25/25/25
f 25/25/25 20/20/20 24/24/24
f 20/20/20 21/21/21 24/24/24
f 24/24/24 21/21/21 23/23/23
f 21/21/21 22/22/22 23/23/23
f 27/27/27 31/31/31 32/32/32
f 31/31/31 29/29/29 32/32/32
f 32/32/32 29/29/29 33/33/33
f 25/25/25 41/41/41 40/40/40
f 40/40/40 41/41/41 39/39/39
f 41/41/41 23/23/23 39/39/39
f 39/39/39 23/23/23 38/38/38
f 29/29/29 31/31/31 30/30/30
f 11/11/11 9/9/9 14/14/14
