# Blender v2.79 (sub 0) OBJ File: ''
# www.blender.org
mtllib X02ButtPlate.mtl
o CPA
v -3.607422 -20.390638 -15.852855
v -3.544922 -21.359386 -19.227856
v 0.015625 -21.703136 -19.040356
v 0.015625 -20.812513 -15.790356
v -6.167969 -21.312511 -21.977856
v -3.357422 -21.687511 -21.727856
v -6.730469 -20.671886 -19.290356
v -7.167969 -19.125013 -15.727855
v -3.607422 -19.406263 -13.602855
v -7.355469 -17.281263 -13.602855
v -8.914062 -20.828136 -22.040356
v -9.726562 -19.578136 -18.915356
v -10.726562 -17.234388 -15.665355
v -11.039062 -14.539076 -13.727854
v -2.451172 -19.640635 -24.290356
v 0.015625 -19.578135 -24.477856
v 0.015625 -21.937511 -21.602856
v -4.730469 -17.984385 -26.227856
v -6.980469 -17.578135 -26.665356
v -5.167969 -15.070321 -29.852854
v -2.857422 -15.648446 -29.227854
v 0.015625 -17.750010 -26.602856
v 0.015625 -15.867196 -28.977854
v -3.482422 -13.093757 -32.227856
v -2.169922 -14.390634 -30.852854
v 0.015625 -13.031257 -32.290356
v 0.015625 -13.984383 -31.352854
v -11.101562 -13.937514 -13.602854
v -10.476562 -14.804700 -16.040354
v -9.664062 -15.492200 -19.040354
v -8.914062 -15.468760 -21.915354
v -7.042969 -14.375009 -26.415354
v -5.105469 -12.390634 -29.477854
v -3.482422 -11.109383 -31.852854
v 0.015625 -19.890638 -13.540355
v 0.015625 -18.546888 -13.102855
v -2.919922 -18.218763 -13.165355
v -6.730469 -16.546888 -13.227855
v -11.039062 -14.539076 -13.727854
v -10.476562 -14.804700 -16.040354
v 0.015625 -10.773445 -31.915354
v 3.638672 -20.390638 -15.852855
v 3.576172 -21.359386 -19.227856
v 6.199219 -21.312511 -21.977856
v 6.730469 -20.671886 -19.290356
v 3.357422 -21.687511 -21.727856
v 7.199219 -19.125013 -15.727855
v 7.355469 -17.281263 -13.602855
v 3.607422 -19.406263 -13.602855
v 8.914062 -20.828136 -22.040356
v 9.726562 -19.578136 -18.915356
v 10.757812 -17.234388 -15.665355
v 11.070312 -14.539076 -13.727854
v 2.482422 -19.640635 -24.290356
v 4.730469 -17.984385 -26.227856
v 7.011719 -17.578135 -26.665356
v 5.199219 -15.070321 -29.852854
v 2.857422 -15.648446 -29.227854
v 2.201172 -14.390634 -30.852854
v 3.482422 -13.093757 -32.227856
v 10.507812 -14.804700 -16.040354
v 11.101562 -13.937514 -13.602854
v 9.695312 -15.492200 -19.040354
v 8.945312 -15.468760 -21.915354
v 5.105469 -12.390634 -29.477854
v 7.042969 -14.375009 -26.415354
v 3.513672 -11.109383 -31.852854
v 2.951172 -18.218763 -13.165355
v 6.730469 -16.546888 -13.227855
v 10.507812 -14.804700 -16.040354
v 11.070312 -14.539076 -13.727854
v 0.015625 -17.750010 -26.602856
v 4.730469 -17.984385 -26.227856
v 2.482422 -19.640635 -24.290356
v 0.015625 -19.578135 -24.477856
vt 0.833008 0.817993
vt 0.838379 0.803589
vt 0.853027 0.808594
vt 0.849121 0.822998
vt 0.832520 0.788940
vt 0.842773 0.793213
vt 0.825684 0.798950
vt 0.816406 0.813477
vt 0.829590 0.828369
vt 0.810547 0.823120
vt 0.822754 0.785767
vt 0.812012 0.795044
vt 0.799316 0.807251
vt 0.789062 0.816284
vt 0.850098 0.779663
vt 0.860352 0.781860
vt 0.855957 0.797607
vt 0.842773 0.766235
vt 0.833008 0.761963
vt 0.845215 0.746338
vt 0.854980 0.752441
vt 0.863770 0.770020
vt 0.867188 0.757324
vt 0.856934 0.735352
vt 0.860352 0.744629
vt 0.872559 0.738525
vt 0.871094 0.744385
vt 0.786133 0.816406
vt 0.790039 0.803711
vt 0.797363 0.787354
vt 0.807129 0.771606
vt 0.825684 0.751221
vt 0.841797 0.736328
vt 0.856445 0.728516
vt 0.846191 0.833374
vt 0.844727 0.838135
vt 0.830078 0.833496
vt 0.811035 0.827148
vt 0.791016 0.817261
vt 0.796387 0.808594
vt 0.875000 0.730225
vt 0.865234 0.827026
vt 0.868164 0.811890
vt 0.880859 0.802490
vt 0.881348 0.814575
vt 0.869629 0.800781
vt 0.881836 0.831665
vt 0.881836 0.842896
vt 0.862793 0.837769
vt 0.891113 0.804810
vt 0.895020 0.818359
vt 0.899902 0.835449
vt 0.903320 0.848389
vt 0.870605 0.785522
vt 0.883789 0.777832
vt 0.894531 0.779175
vt 0.892090 0.759155
vt 0.880371 0.759521
vt 0.879883 0.750000
vt 0.887695 0.743652
vt 0.909180 0.837158
vt 0.905762 0.849976
vt 0.911621 0.819458
vt 0.911621 0.800903
vt 0.900391 0.752563
vt 0.906250 0.773682
vt 0.891602 0.738037
vt 0.859863 0.841919
vt 0.879395 0.846313
vt 0.901367 0.838135
vt 0.901367 0.848389
vt 0.863770 0.770020
vt 0.883789 0.777832
vt 0.870605 0.785522
vt 0.860352 0.781860
vn -0.1919 -0.9204 0.3407
vn -0.1526 -0.9663 0.2074
vn 0.0039 -0.9815 0.1916
vn 0.0039 -0.9455 0.3256
vn -0.1371 -0.9593 -0.2467
vn -0.0822 -0.9593 -0.2702
vn -0.2473 -0.9303 0.2708
vn -0.3497 -0.8291 0.4362
vn -0.1996 -0.6929 0.6929
vn -0.3564 -0.5993 0.7168
vn -0.6704 -0.6940 -0.2627
vn -0.8024 -0.5910 0.0822
vn -0.8740 -0.4429 0.1999
vn -0.9869 -0.1612 -0.0039
vn -0.0275 -0.7740 -0.6326
vn -0.0118 -0.7672 -0.6413
vn 0.0040 -0.9605 -0.2783
vn -0.0273 -0.7772 -0.6287
vn -0.6011 -0.4675 -0.6482
vn -0.5709 -0.4213 -0.7047
vn -0.0196 -0.7811 -0.6241
vn -0.0039 -0.7743 -0.6328
vn 0.0039 -0.7813 -0.6242
vn -0.3869 -0.2227 -0.8948
vn -0.0197 -0.7599 -0.6497
vn 0.0039 -0.2855 -0.9584
vn 0.0039 -0.7301 -0.6833
vn -0.9688 0.0196 -0.2471
vn -0.9624 0.0668 -0.2632
vn -0.9605 0.0039 -0.2784
vn -0.9479 0.0039 -0.3186
vn -0.8993 0.0353 -0.4359
vn -0.8568 0.1056 -0.5047
vn -0.4505 0.1841 -0.8736
vn 0.0039 -0.7265 0.6872
vn 0.0039 -0.3948 0.9188
vn -0.1139 -0.4046 0.9074
vn -0.2084 -0.3421 0.9163
vn -0.5907 -0.8019 0.0900
vn -0.5920 -0.8038 -0.0588
vn 0.0039 0.1612 -0.9869
vn 0.1994 -0.9190 0.3401
vn 0.1526 -0.9663 0.2074
vn 0.1368 -0.9575 -0.2540
vn 0.2473 -0.9303 0.2708
vn 0.0822 -0.9593 -0.2702
vn 0.3497 -0.8291 0.4362
vn 0.3564 -0.5993 0.7168
vn 0.1996 -0.6929 0.6929
vn 0.6704 -0.6939 -0.2627
vn 0.8024 -0.5911 0.0822
vn 0.8740 -0.4429 0.1999
vn 0.9869 -0.1612 -0.0040
vn 0.0353 -0.7738 -0.6324
vn 0.0196 -0.7811 -0.6241
vn 0.6011 -0.4675 -0.6482
vn 0.5761 -0.4194 -0.7016
vn 0.0196 -0.7599 -0.6497
vn 0.3868 -0.2227 -0.8949
vn 0.9624 0.0668 -0.2632
vn 0.9688 0.0196 -0.2471
vn 0.9605 0.0039 -0.2783
vn 0.9455 0.0039 -0.3256
vn 0.8602 0.1061 -0.4988
vn 0.8993 0.0353 -0.4359
vn 0.4505 0.1841 -0.8736
vn 0.1139 -0.4046 0.9074
vn 0.2084 -0.3421 0.9163
vn 0.5920 -0.8038 -0.0588
vn 0.5907 -0.8019 0.0900
vn 0.0197 -0.7632 -0.6459
vn 0.0117 -0.7633 -0.6459
vn 0.0118 -0.7600 -0.6498
usemtl Material.000001
s 1
f 1/1/1 2/2/2 3/3/3
f 3/3/3 4/4/4 1/1/1
f 5/5/5 6/6/6 2/2/2
f 2/2/2 7/7/7 5/5/5
f 7/7/7 2/2/2 1/1/1
f 1/1/1 8/8/8 7/7/7
f 8/8/8 1/1/1 9/9/9
f 9/9/9 10/10/10 8/8/8
f 11/11/11 5/5/5 7/7/7
f 7/7/7 12/12/12 11/11/11
f 12/12/12 7/7/7 8/8/8
f 8/8/8 13/13/13 12/12/12
f 13/13/13 8/8/8 10/10/10
f 10/10/10 14/14/14 13/13/13
f 15/15/15 16/16/16 17/17/17
f 17/17/17 6/6/6 15/15/15
f 15/15/15 6/6/6 5/5/5
f 5/5/5 18/18/18 15/15/15
f 19/19/19 18/18/18 5/5/5
f 5/5/5 11/11/11 19/19/19
f 20/20/20 21/21/21 18/18/18
f 18/18/18 19/19/19 20/20/20
f 22/22/22 18/18/18 21/21/21
f 21/21/21 23/23/23 22/22/22
f 20/20/20 24/24/24 25/25/25
f 25/25/25 21/21/21 20/20/20
f 26/26/26 27/27/27 25/25/25
f 25/25/25 24/24/24 26/26/26
f 14/14/14 28/28/28 29/29/29
f 29/29/29 13/13/13 14/14/14
f 30/30/30 12/12/12 13/13/13
f 13/13/13 29/29/29 30/30/30
f 12/12/12 30/30/30 31/31/31
f 31/31/31 11/11/11 12/12/12
f 20/20/20 19/19/19 32/32/32
f 32/32/32 33/33/33 20/20/20
f 31/31/31 32/32/32 19/19/19
f 19/19/19 11/11/11 31/31/31
f 33/33/33 34/34/34 24/24/24
f 24/24/24 20/20/20 33/33/33
f 35/35/35 36/36/36 37/37/37
f 37/37/37 9/9/9 35/35/35
f 37/37/37 38/38/38 10/10/10
f 10/10/10 9/9/9 37/37/37
f 10/10/10 38/38/38 39/39/39
f 39/39/39 40/40/40 10/10/10
f 3/3/3 2/2/2 6/6/6
f 6/6/6 17/17/17 3/3/3
f 1/1/1 4/4/4 35/35/35
f 35/35/35 9/9/9 1/1/1
f 22/22/22 16/16/16 15/15/15
f 15/15/15 18/18/18 22/22/22
f 25/25/25 27/27/27 23/23/23
f 23/23/23 21/21/21 25/25/25
f 34/34/34 41/41/41 26/26/26
f 26/26/26 24/24/24 34/34/34
f 42/42/42 4/4/4 3/3/3
f 3/3/3 43/43/43 42/42/42
f 44/44/44 45/45/45 43/43/43
f 43/43/43 46/46/46 44/44/44
f 45/45/45 47/47/47 42/42/42
f 42/42/42 43/43/43 45/45/45
f 47/47/47 48/48/48 49/49/49
f 49/49/49 42/42/42 47/47/47
f 50/50/50 51/51/51 45/45/45
f 45/45/45 44/44/44 50/50/50
f 51/51/51 52/52/52 47/47/47
f 47/47/47 45/45/45 51/51/51
f 52/52/52 53/53/53 48/48/48
f 48/48/48 47/47/47 52/52/52
f 54/54/54 46/46/46 17/17/17
f 17/17/17 16/16/16 54/54/54
f 54/54/54 55/55/55 44/44/44
f 44/44/44 46/46/46 54/54/54
f 56/56/56 50/50/50 44/44/44
f 44/44/44 55/55/55 56/56/56
f 57/57/57 56/56/56 55/55/55
f 55/55/55 58/58/55 57/57/57
f 22/22/22 23/23/23 58/58/55
f 58/58/55 55/55/55 22/22/22
f 57/57/57 58/58/55 59/59/58
f 59/59/58 60/60/59 57/57/57
f 26/26/26 60/60/59 59/59/58
f 59/59/58 27/27/27 26/26/26
f 53/53/53 52/52/52 61/61/60
f 61/61/60 62/62/61 53/53/53
f 63/63/62 61/61/60 52/52/52
f 52/52/52 51/51/51 63/63/62
f 51/51/51 50/50/50 64/64/63
f 64/64/63 63/63/62 51/51/51
f 57/57/57 65/65/64 66/66/65
f 66/66/65 56/56/56 57/57/57
f 64/64/63 50/50/50 56/56/56
f 56/56/56 66/66/65 64/64/63
f 65/65/64 57/57/57 60/60/59
f 60/60/59 67/67/66 65/65/64
f 35/35/35 49/49/49 68/68/67
f 68/68/67 36/36/36 35/35/35
f 68/68/67 49/49/49 48/48/48
f 48/48/48 69/69/68 68/68/67
f 48/48/48 70/70/69 71/71/70
f 71/71/70 69/69/68 48/48/48
f 46/46/46 43/43/43 3/3/3
f 3/3/3 17/17/17 46/46/46
f 42/42/42 49/49/49 35/35/35
f 35/35/35 4/4/4 42/42/42
f 59/59/58 58/58/55 23/23/23
f 23/23/23 27/27/27 59/59/58
f 67/67/66 60/60/59 26/26/26
f 26/26/26 41/41/41 67/67/66
f 72/72/71 73/73/72 74/74/72
f 74/74/72 75/75/73 72/72/71
