# Blender v2.79 (sub 0) OBJ File: ''
# www.blender.org
mtllib X02LeftPawFront.mtl
o CPA
v -26.296875 3.419920 -32.196064
v -17.609375 16.859375 -40.574966
v -14.164062 20.031250 -43.510513
v -17.671875 20.187500 -43.510513
v -13.351562 16.765625 -40.574966
v -17.609375 16.187500 -39.762466
v -20.671875 15.218749 -37.637466
v -17.484375 15.195312 -37.574966
v -20.609375 16.187500 -39.887466
v -17.734375 20.218750 -44.948135
v -14.164062 20.218750 -44.948135
v -22.234375 17.718750 -44.510757
v -21.046875 20.078125 -43.573013
v -20.921875 20.218750 -44.885696
v -21.921875 17.968750 -43.760513
v -21.796875 16.859375 -40.762466
v -22.234375 16.640625 -43.010513
v -13.414062 18.562500 -44.573135
v -14.164062 20.031250 -43.510513
v -13.414062 18.312500 -43.448013
v -14.164062 20.218750 -44.948135
v -13.351562 16.765625 -40.574966
v -12.976562 16.781250 -43.010513
v -11.476562 13.382812 -42.948013
v -11.539062 13.140624 -40.574966
v -24.921875 11.429688 -42.635513
v -23.609375 14.562499 -40.699966
v -23.859375 14.531250 -42.823013
v -25.046875 10.960937 -40.387466
v -23.296875 13.265624 -36.539810
v -24.859375 11.164062 -36.477310
v -11.664062 12.531249 -36.758560
v -10.414062 10.312499 -40.449966
v -10.351562 10.085937 -36.477310
v -26.859375 10.859375 -43.635517
v -29.421875 10.484375 -43.573017
v -26.984375 10.796875 -44.573139
v -29.421875 10.453125 -44.760670
v -30.234375 7.179688 -43.510517
v -29.421875 10.453125 -44.760670
v -30.234375 7.125000 -44.698200
v -29.421875 10.484375 -43.573017
v -9.101562 9.937500 -43.448017
v -5.917969 9.046875 -43.448017
v -10.351562 10.367188 -42.635517
v -5.980469 9.148438 -44.698200
v -9.226562 9.867188 -44.635639
v -5.355469 2.533203 -43.573017
v -5.605469 5.429688 -44.698200
v -5.667969 5.429688 -43.385517
v -5.355469 2.500000 -44.698200
v -5.917969 9.046875 -43.448017
v -10.039062 5.183593 -40.262470
v -10.414062 10.312499 -40.449966
v -9.914062 3.583983 -33.977314
v -10.164062 6.445311 -34.883564
v -9.476562 1.279296 -40.512470
v -25.671875 6.757811 -33.914814
v -26.734375 2.445312 -40.574970
v -26.296875 3.361326 -32.102314
v -25.859375 6.824218 -40.387470
v -30.859375 4.203125 -43.510517
v -10.726562 6.542967 -34.289814
v -13.726562 6.367185 -29.227314
v -10.289062 3.755857 -33.102314
v -13.539062 8.226561 -31.039814
v -13.414062 10.343748 -32.977310
v -12.289062 12.070311 -35.914810
v -13.351562 14.328123 -35.727310
v -11.289062 10.085936 -35.758560
v -24.546875 15.093750 -43.823013
v -24.609375 15.023438 -44.323257
v -10.539062 14.015625 -43.573013
v -9.226562 9.867188 -44.635639
v -10.351562 13.953125 -44.323257
v -9.601562 1.117188 -44.635639
v -17.484375 10.757811 -32.696060
v -17.609375 14.335936 -35.696060
v -17.546875 8.624998 -30.571064
v -21.671875 10.898436 -33.446060
v -22.984375 12.874998 -35.852310
v -23.921875 10.921873 -35.789810
v -21.734375 14.382811 -35.758560
v -24.734375 6.777342 -33.446064
v -21.609375 8.312498 -31.164814
v -17.484375 14.984374 -36.446060
v -21.921875 15.015624 -36.571060
v -13.101562 14.929687 -36.477310
v -25.921875 3.427732 -31.289814
v -13.414062 18.312500 -43.448013
v -13.414062 18.562500 -44.573135
v -22.234375 17.718750 -44.510757
v -30.734375 3.810547 -44.698200
v -5.980469 9.148438 -44.698200
v -25.046875 10.960937 -40.387466
v -21.484375 6.355466 -29.196064
v -17.546875 6.812498 -28.758562
v -21.046875 20.078125 -43.573013
v -21.796875 16.859375 -40.762466
v -14.476562 16.109375 -39.762466
v -14.351562 15.164062 -37.574966
v -20.921875 20.218750 -44.885696
v -20.796875 16.453125 -39.824966
v -17.609375 16.468750 -39.699966
v -20.859375 15.429687 -37.449966
v -17.484375 15.398437 -37.387466
v -14.101562 15.367187 -37.387466
v -14.289062 16.375000 -39.699966
vt 0.647949 0.056152
vt 0.608398 0.023926
vt 0.640137 0.016113
vt 0.608887 0.065430
vt 0.649902 0.065430
vt 0.682129 0.080566
vt 0.654297 0.088867
vt 0.676758 0.060547
vt 0.638184 0.003906
vt 0.605957 0.010254
vt 0.711426 0.006348
vt 0.690918 0.014160
vt 0.690918 0.001465
vt 0.712402 0.014160
vt 0.705078 0.047852
vt 0.721680 0.032227
vt 0.567383 0.033691
vt 0.586426 0.030273
vt 0.572754 0.042969
vt 0.578125 0.019531
vt 0.589355 0.070312
vt 0.567383 0.058594
vt 0.554688 0.089844
vt 0.570801 0.102051
vt 0.764648 0.068848
vt 0.729004 0.063477
vt 0.741699 0.047852
vt 0.756836 0.087402
vt 0.715820 0.100098
vt 0.736816 0.114746
vt 0.597656 0.125000
vt 0.556641 0.127441
vt 0.584961 0.146973
vt 0.787109 0.068359
vt 0.801270 0.086426
vt 0.793945 0.063965
vt 0.810059 0.080078
vt 0.841797 0.112305
vt 0.833496 0.080566
vt 0.850586 0.107422
vt 0.823730 0.086426
vt 0.523926 0.123047
vt 0.520508 0.153809
vt 0.542969 0.116211
vt 0.508789 0.151367
vt 0.513184 0.120605
vt 0.488281 0.218750
vt 0.475342 0.197266
vt 0.489014 0.195312
vt 0.480957 0.222656
vt 0.488770 0.163574
vt 0.539062 0.197754
vt 0.543457 0.151367
vt 0.589844 0.212402
vt 0.589844 0.183594
vt 0.530273 0.232910
vt 0.752930 0.159668
vt 0.821777 0.168945
vt 0.765625 0.193359
vt 0.797363 0.135254
vt 0.857422 0.136230
vt 0.595703 0.184570
vt 0.643555 0.207520
vt 0.593262 0.212891
vt 0.636719 0.184082
vt 0.629395 0.157715
vt 0.606445 0.131836
vt 0.621094 0.113770
vt 0.597168 0.149414
vt 0.748535 0.037598
vt 0.751953 0.034668
vt 0.542969 0.083984
vt 0.523438 0.113770
vt 0.535645 0.083496
vt 0.501953 0.255859
vt 0.666504 0.149902
vt 0.659180 0.106934
vt 0.672363 0.177734
vt 0.703613 0.138672
vt 0.713379 0.107910
vt 0.728516 0.121582
vt 0.697266 0.099609
vt 0.744629 0.163086
vt 0.708496 0.170898
vt 0.656738 0.098145
vt 0.697266 0.089355
vt 0.615723 0.105957
vt 0.761230 0.197754
vt 0.562500 0.041016
vt 0.551270 0.034668
vt 0.726074 0.014160
vt 0.868164 0.132812
vt 0.474121 0.163086
vt 0.775879 0.102051
vt 0.709961 0.197266
vt 0.676270 0.201172
vt 0.670410 0.010254
vt 0.686035 0.047852
vt 0.623047 0.073242
vt 0.625977 0.093262
vt 0.666992 -0.001953
vt 0.679199 0.059082
vt 0.649414 0.062500
vt 0.685059 0.081543
vt 0.654785 0.091309
vt 0.623535 0.094727
vt 0.620117 0.072266
vn -0.0039 0.8051 0.5931
vn 0.0197 0.8788 0.4768
vn 0.0117 0.9043 0.4267
vn 0.0118 0.8179 0.5753
vn -0.0118 0.4519 0.8920
vn 0.3719 0.9203 -0.1214
vn 0.0118 0.9780 -0.2082
vn 0.3332 0.4665 0.8193
vn 0.0195 0.9992 0.0353
vn 0.0039 0.9916 0.1293
vn -0.9055 0.3959 0.1528
vn -0.9054 0.4193 0.0667
vn -0.8883 0.4579 -0.0352
vn -0.8660 0.4349 0.2469
vn -0.8243 0.5430 0.1602
vn -0.7873 0.4974 0.3643
vn 0.9078 0.4127 0.0747
vn 0.9053 0.4115 0.1058
vn 0.9124 0.3799 0.1527
vn 0.9058 0.4196 0.0588
vn 0.9018 0.4099 0.1367
vn 0.8118 0.3804 0.4431
vn 0.7546 0.3558 0.5513
vn 0.9073 0.4124 0.0825
vn -0.6924 0.5986 0.4029
vn -0.8495 0.5050 0.1527
vn -0.7934 0.4495 0.4104
vn -0.7881 0.6077 0.0980
vn -0.7649 0.5139 0.3884
vn -0.8108 0.4582 0.3643
vn 0.8249 0.4261 0.3714
vn 0.8271 0.5605 0.0432
vn 0.8754 0.3258 0.3572
vn -0.4518 0.8760 0.1689
vn -0.1370 0.9906 -0.0039
vn -0.5133 0.8581 0.0117
vn -0.1370 0.9902 -0.0274
vn -0.8691 0.2005 0.4522
vn -0.9708 0.2398 -0.0039
vn -0.9761 0.2155 -0.0274
vn -0.8510 0.2078 0.4823
vn 0.5439 0.8334 0.0978
vn 0.2708 0.9617 0.0432
vn 0.6929 0.6224 0.3640
vn 0.2543 0.9665 0.0352
vn 0.2150 0.9732 -0.0821
vn 0.8131 -0.4596 0.3574
vn 0.9953 0.0905 0.0354
vn 0.8685 0.0668 0.4912
vn 0.8276 -0.5609 0.0196
vn 0.8754 0.0903 0.4750
vn 0.8921 0.0826 0.4442
vn 0.8998 0.0826 0.4283
vn 0.9593 0.1997 0.1997
vn 0.9084 0.2163 0.3579
vn 0.8524 -0.2632 0.4518
vn -0.7874 0.4035 0.4661
vn -0.8616 0.1534 0.4839
vn -0.8787 0.3979 0.2639
vn -0.8678 0.1688 0.4673
vn -0.9083 0.1533 0.3892
vn 0.7641 0.3331 0.5525
vn 0.4816 0.5834 0.6539
vn 0.8575 0.3093 0.4112
vn 0.5064 0.5692 0.6477
vn 0.4923 0.5317 0.6892
vn 0.7226 0.3474 0.5976
vn 0.3894 0.5939 0.7040
vn 0.6619 0.3799 0.6462
vn -0.7654 0.5299 0.3651
vn -0.8275 0.5608 0.0275
vn 0.7568 0.3725 0.5372
vn 0.9447 0.3175 -0.0823
vn 0.9049 0.3800 0.1919
vn 0.3090 -0.9507 0.0273
vn -0.0196 0.6625 0.7488
vn -0.0117 0.6913 0.7225
vn -0.0039 0.7032 0.7110
vn -0.3876 0.5599 0.7323
vn -0.6690 0.4186 0.6142
vn -0.5532 0.4355 0.7101
vn -0.3101 0.6319 0.7104
vn -0.5428 0.5193 0.6600
vn -0.4209 0.6173 0.6647
vn 0.0039 0.8433 0.5374
vn -0.4110 0.7789 0.4737
vn 0.5048 0.7318 0.4579
vn -0.7263 0.5378 0.4280
vn 0.8040 0.5373 0.2549
vn 0.8228 0.5551 0.1220
vn -0.7395 0.6691 0.0744
vn -0.9775 0.1453 -0.1531
vn 0.9942 0.0983 -0.0432
vn -0.8903 0.1765 0.4197
vn -0.4189 0.6382 0.6460
vn 0.0043 0.7071 0.7071
vn -0.0353 0.8751 0.4827
vn -0.0196 0.8115 0.5841
vn -0.3411 0.4744 0.8115
vn -0.3092 0.9432 -0.1213
vn -0.0273 0.9963 0.0820
vn 0.1841 0.8184 0.5443
vn 0.1758 0.9490 0.2617
vn 0.0118 0.9796 -0.2006
vn -0.1367 0.9487 0.2850
vn -0.1915 0.8013 0.5667
usemtl Material.000001
s 1
f 2/1/1 3/2/2 4/3/3
f 3/2/2 2/1/1 5/4/4
f 6/5/5 7/6/6 8/7/7
f 7/6/6 6/5/5 9/8/8
f 3/2/2 10/9/9 4/3/3
f 10/9/9 3/2/2 11/10/10
f 12/11/11 13/12/12 14/13/13
f 13/12/12 12/11/11 15/14/14
f 15/14/14 16/15/15 13/12/12
f 16/15/15 15/14/14 17/16/16
f 18/17/17 19/18/18 20/19/19
f 19/18/18 18/17/17 21/20/20
f 22/21/21 20/19/19 19/18/18
f 20/19/19 22/21/21 23/22/22
f 24/23/23 22/21/21 25/24/24
f 22/21/21 24/23/23 23/22/22
f 26/25/25 27/26/26 28/27/27
f 27/26/26 26/25/25 29/28/28
f 30/29/29 29/28/28 31/30/30
f 29/28/28 30/29/29 27/26/26
f 32/31/31 33/32/32 25/24/24
f 33/32/32 32/31/31 34/33/33
f 29/28/28 35/34/34 36/35/35
f 35/34/34 29/28/28 26/25/25
f 36/35/35 37/36/36 38/37/37
f 37/36/36 36/35/35 35/34/34
f 39/38/38 40/39/39 41/40/40
f 40/39/39 39/38/38 42/41/41
f 43/42/42 33/32/32 44/43/43
f 33/32/32 43/42/42 45/44/44
f 43/42/42 46/45/45 47/46/46
f 46/45/45 43/42/42 44/43/43
f 48/47/47 49/48/48 50/49/49
f 49/48/48 48/47/47 51/50/50
f 52/51/51 53/52/52 50/49/49
f 53/52/52 52/51/51 54/53/53
f 55/54/54 53/52/52 56/55/55
f 53/52/52 55/54/54 57/56/56
f 58/57/57 59/58/58 60/59/59
f 59/58/58 58/57/57 61/60/60
f 62/61/61 61/60/60 39/38/38
f 61/60/60 62/61/61 59/58/58
f 63/62/62 64/63/63 65/64/64
f 64/63/63 63/62/62 66/65/65
f 67/66/66 68/67/67 69/68/68
f 68/67/67 67/66/66 70/69/69
f 71/70/70 26/25/25 28/27/27
f 26/25/25 71/70/70 35/34/34
f 72/71/71 35/34/34 71/70/70
f 35/34/34 72/71/71 37/36/36
f 73/72/72 74/73/73 75/74/74
f 74/73/73 73/72/72 43/42/42
f 73/72/72 45/44/44 43/42/42
f 45/44/44 73/72/72 24/23/23
f 76/75/75 48/47/47 57/56/56
f 48/47/47 76/75/75 51/50/50
f 77/76/76 69/68/68 78/77/77
f 69/68/68 77/76/76 67/66/66
f 79/78/78 67/66/66 77/76/76
f 67/66/66 79/78/78 66/65/65
f 80/79/79 81/80/80 82/81/81
f 81/80/80 80/79/79 83/82/82
f 84/83/83 80/79/79 82/81/81
f 80/79/79 84/83/83 85/84/84
f 86/85/85 83/82/82 78/77/77
f 83/82/82 86/85/85 87/86/86
f 30/29/29 82/81/81 81/80/80
f 82/81/81 30/29/29 31/30/30
f 32/31/31 69/68/68 68/67/67
f 69/68/68 32/31/31 88/87/87
f 56/55/55 70/69/69 63/62/62
f 70/69/69 56/55/55 34/33/33
f 84/83/83 60/59/59 89/88/88
f 60/59/59 84/83/83 58/57/57
f 45/44/44 25/24/24 33/32/32
f 25/24/24 45/44/44 24/23/23
f 88/87/87 25/24/24 22/21/21
f 25/24/24 88/87/87 32/31/31
f 90/89/89 75/74/74 91/90/90
f 75/74/74 90/89/89 73/72/72
f 23/22/22 73/72/72 90/89/89
f 73/72/72 23/22/22 24/23/23
f 32/31/31 70/69/69 34/33/33
f 70/69/69 32/31/31 68/67/67
f 17/16/16 27/26/26 16/15/15
f 27/26/26 17/16/16 28/27/27
f 27/26/26 87/86/86 16/15/15
f 87/86/86 27/26/26 30/29/29
f 71/70/70 17/16/16 15/14/14
f 17/16/16 71/70/70 28/27/27
f 92/91/91 71/70/70 15/14/14
f 71/70/70 92/91/91 72/71/71
f 30/29/29 83/82/82 87/86/86
f 83/82/82 30/29/29 81/80/80
f 62/61/61 41/40/40 93/92/92
f 41/40/40 62/61/61 39/38/38
f 52/51/51 49/48/48 94/93/93
f 49/48/48 52/51/51 50/49/49
f 48/47/47 53/52/52 57/56/56
f 53/52/52 48/47/47 50/49/49
f 34/33/33 53/52/52 54/53/53
f 53/52/52 34/33/33 56/55/55
f 61/60/60 31/30/30 95/94/94
f 31/30/30 61/60/60 58/57/57
f 42/41/41 61/60/60 95/94/94
f 61/60/60 42/41/41 39/38/38
f 67/66/66 63/62/62 70/69/69
f 63/62/62 67/66/66 66/65/65
f 79/78/78 96/95/95 97/96/96
f 96/95/95 79/78/78 85/84/84
f 96/95/95 84/83/83 89/88/88
f 84/83/83 96/95/95 85/84/84
f 55/54/54 63/62/62 65/64/64
f 63/62/62 55/54/54 56/55/55
f 58/57/57 82/81/81 31/30/30
f 82/81/81 58/57/57 84/83/83
f 2/1/1 98/97/97 99/98/98
f 98/97/97 2/1/1 4/3/3
f 100/99/99 8/7/7 101/100/100
f 8/7/7 100/99/99 6/5/5
f 4/3/3 102/101/101 98/97/97
f 102/101/101 4/3/3 10/9/9
f 80/79/79 78/77/77 83/82/82
f 78/77/77 80/79/79 77/76/76
f 85/84/84 77/76/76 80/79/79
f 77/76/76 85/84/84 79/78/78
f 86/85/85 69/68/68 88/87/87
f 69/68/68 86/85/85 78/77/77
f 79/78/78 64/63/63 66/65/65
f 64/63/63 79/78/78 97/96/96
f 103/102/102 2/1/1 99/98/98
f 2/1/1 103/102/102 104/103/5
f 105/104/103 99/98/98 87/86/86
f 99/98/98 105/104/103 103/102/102
f 106/105/104 87/86/86 86/85/85
f 87/86/86 106/105/104 105/104/103
f 107/106/105 86/85/85 88/87/87
f 86/85/85 107/106/105 106/105/104
f 108/107/106 88/87/87 5/4/4
f 88/87/87 108/107/106 107/106/105
f 104/103/5 5/4/4 2/1/1
f 5/4/4 104/103/5 108/107/106
f 9/8/8 104/103/5 103/102/102
f 104/103/5 9/8/8 6/5/5
f 7/6/6 103/102/102 105/104/103
f 103/102/102 7/6/6 9/8/8
f 8/7/7 105/104/103 106/105/104
f 105/104/103 8/7/7 7/6/6
f 101/100/100 106/105/104 107/106/105
f 106/105/104 101/100/100 8/7/7
f 100/99/99 107/106/105 108/107/106
f 107/106/105 100/99/99 101/100/100
f 6/5/5 108/107/106 104/103/5
f 108/107/106 6/5/5 100/99/99
