# Blender v2.79 (sub 0) OBJ File: ''
# www.blender.org
mtllib X02LeftUpperarm.mtl
o CPA
v -25.921875 -15.062518 -6.051422
v -22.015625 0.304180 -0.863922
v -20.265625 0.331768 2.261078
v -18.609375 0.079510 -0.926422
v -19.578125 -0.059711 -2.926422
v -25.390625 -0.487079 -6.738922
v -23.671875 0.078228 -3.363922
v -20.734375 -0.188373 -5.488922
v -21.671875 -0.383563 -8.613922
v -19.171875 -0.816914 2.636078
v -17.484375 -1.007831 -0.926422
v -20.046875 -1.312518 -6.051422
v -18.578125 -1.363300 -3.176422
v -21.359375 -1.247088 -9.051422
v -25.515625 -1.049823 -7.426422
v -18.562500 -2.771502 -7.238922
v -20.203125 -2.666033 -9.926422
v -16.718750 -2.959003 -4.613922
v -15.820312 -3.244159 -3.613922
v -14.695312 -5.582049 -5.301422
v -15.164062 -5.437518 -5.988922
v -16.750000 -5.097674 -8.176422
v -18.468750 -4.753923 -10.801422
v -14.335938 -7.851581 -6.363922
v -14.867188 -7.941424 -7.363922
v -16.046875 -8.023455 -9.613922
v -17.734375 -8.039080 -12.613922
v -26.109375 1.143536 -3.176422
v -24.546875 1.658184 0.886078
v -22.953125 1.931621 4.761078
v -27.109375 0.613263 -6.176422
v -27.109375 -0.117389 -7.238922
v -28.515625 -2.306659 -7.301422
v -28.640625 -1.022479 -5.426422
v -27.984375 -0.370380 -2.176422
v -27.046875 0.199932 1.948578
v -25.453125 0.820781 7.011078
v -29.328125 -6.292987 -2.926422
v -28.703125 -5.421894 -0.676422
v -27.828125 -4.718770 2.511078
v -26.296875 -4.070333 7.261078
v -29.234375 -6.496112 -3.863922
v -28.453125 -2.857440 -7.613922
v -30.296875 -6.414081 -6.676422
v -30.734375 -8.515643 -6.488922
v -29.671875 -8.507831 -3.988922
v -29.609375 -11.335956 -4.426422
v -30.515625 -11.445331 -6.676422
v -30.921875 -5.589861 -9.301422
v -31.984375 -9.171892 -10.176422
v -31.671875 -10.617205 -9.488922
v -28.921875 -11.960956 -7.551422
v -28.203125 -11.734393 -5.113922
v -29.640625 -11.242205 -10.426422
v -30.390625 -9.156267 -11.863922
v -29.765625 -4.488299 -8.426422
v -28.828125 -4.468768 -9.113922
v -29.609375 -5.667986 -10.301422
v -28.203125 -3.007830 -8.426422
v -25.453125 -1.998065 -8.113922
v -22.109375 -1.978533 -9.676422
v -21.109375 -3.082049 -10.613922
v -20.203125 -4.976580 -11.738922
v -19.859375 -7.476579 -13.551422
v -19.859375 -1.471699 3.948578
v -20.828125 -2.427754 5.636078
v -22.046875 -5.226583 6.198578
v -27.515625 -6.613300 -0.863922
v -28.578125 -7.042987 -3.113922
v -26.015625 -6.042988 1.948578
v -28.703125 -7.324237 -3.926422
v -29.484375 -8.570331 -3.863922
v -15.031250 -9.250018 -7.113922
v -15.015625 -7.949237 -7.363922
v -14.484375 -7.859393 -6.363922
v -14.125000 -9.109393 -5.613922
v -16.468750 -9.453142 -9.613922
v -16.203125 -8.031267 -9.613922
v -17.515625 -9.609392 -11.301422
v -17.890625 -8.046892 -12.613922
v -20.015625 -7.484392 -13.551422
v -17.890625 -8.046892 -12.613922
v -18.500000 -9.789080 -12.926422
v -19.890625 -9.929705 -14.238922
v -15.390625 -6.117206 -4.488922
v -14.359375 -9.109393 -5.613922
v -16.265625 -4.125019 -3.051422
v -17.421875 -2.183613 -0.551422
v -19.015625 -1.480488 2.636078
v -19.296875 -2.298848 3.761078
v -19.640625 -3.451192 5.323578
v -21.421875 -5.355489 6.261078
v -27.515625 -6.613300 -0.863922
v -28.578125 -7.042987 -3.113922
v -29.453125 -7.152362 -2.051422
v -28.890625 -6.792988 -0.113922
v -28.046875 -6.296895 3.011078
v -26.015625 -6.042988 1.948578
v -26.546875 -5.640646 7.698578
v -22.046875 -5.226583 6.198578
v -28.703125 -7.324237 -3.926422
v -29.703125 -7.628925 -3.051422
v -29.484375 -8.570331 -3.863922
v -30.703125 -9.101582 -2.926422
v -28.203125 -11.734393 -5.113922
v -31.078125 -11.804707 -2.926422
v -28.859375 -8.171895 3.573578
v -27.453125 -8.195333 7.761078
v -29.921875 -8.531269 0.323578
v -30.609375 -8.773457 -1.801422
v -29.015625 -11.234395 3.511078
v -27.234375 -11.218770 7.448578
v -30.359375 -11.664082 0.136078
v -31.234375 -11.906269 -2.113922
v -27.375000 -14.570331 -5.051422
v -24.843750 -17.296894 -5.926422
v -27.281250 -16.656269 -4.426422
v -30.015625 -13.757831 -3.301422
v -26.968750 -16.906269 -3.801422
v -24.312500 -17.390644 -4.801422
v -29.890625 -13.953144 -2.738922
v -25.750000 -17.062519 -1.301422
v -23.218750 -17.515644 -2.551422
v -28.890625 -13.898457 -0.238922
v -22.156250 -17.609394 -0.176422
v -24.968750 -17.031269 1.448578
v -27.921875 -13.593770 2.698578
v -22.812500 -16.906269 4.511078
v -20.750000 -17.593769 3.261078
v -26.109375 -13.507833 6.448578
v -27.890625 -12.742206 -7.676422
v -28.921875 -11.960956 -7.551422
v -29.640625 -11.242205 -10.426422
v -29.046875 -12.476580 -11.426422
v -27.468750 -16.968767 -12.363922
v -25.812500 -17.203142 -8.176422
v -19.406250 -18.359394 -4.738922
v -18.468750 -18.406269 -2.926422
v -17.968750 -18.484394 -1.613922
v -20.531250 -18.281267 -6.676422
v -21.406250 -18.203142 -8.551422
v -22.593750 -18.031267 -10.801422
v -24.250000 -17.796892 -13.676422
v -22.859375 -8.601583 6.761078
v -22.328125 -11.070333 6.386078
v -20.515625 -14.882833 4.198578
v -20.984375 -14.679705 -12.051422
v -22.234375 -14.218767 -14.738922
v -18.265625 -14.539081 -7.863922
v -19.515625 -14.718767 -9.738922
v -16.953125 -14.406268 -5.738922
v -15.710938 -14.578143 -3.988922
v -16.468750 -9.453142 -9.613922
v -15.031250 -9.250018 -7.113922
v -15.835938 -12.046893 -6.551422
v -17.109375 -12.226581 -8.676422
v -14.968750 -11.578143 -5.051422
v -14.125000 -9.109393 -5.613922
v -19.890625 -9.929705 -14.238922
v -18.390625 -9.867205 -12.926422
v -19.718750 -12.812517 -12.613922
v -20.750000 -12.421892 -14.738922
v -17.328125 -9.687517 -11.301422
v -18.343750 -12.562517 -10.488922
v -17.671875 -15.757832 -1.488922
v -24.546875 -15.023455 -14.238922
v -27.515625 -14.445330 -12.863922
v -14.984375 9.023417 13.511078
vt 0.453369 0.866577
vt 0.480469 0.916382
vt 0.434082 0.906982
vt 0.416260 0.877441
vt 0.422363 0.767334
vt 0.440674 0.822754
vt 0.397217 0.837891
vt 0.374512 0.796997
vt 0.481445 0.943146
vt 0.422607 0.924683
vt 0.381836 0.843628
vt 0.400879 0.889709
vt 0.365479 0.794800
vt 0.416992 0.751099
vt 0.352783 0.850342
vt 0.339111 0.804688
vt 0.366943 0.896545
vt 0.369873 0.918274
vt 0.329590 0.914978
vt 0.326904 0.902832
vt 0.317871 0.862305
vt 0.307373 0.816284
vt 0.292236 0.922607
vt 0.284668 0.907593
vt 0.269531 0.872192
vt 0.251709 0.824097
vt 0.464600 0.797485
vt 0.488281 0.848999
vt 0.519043 0.891724
vt 0.447998 0.761230
vt 0.441406 0.750366
vt 0.460205 0.717285
vt 0.472656 0.743896
vt 0.494629 0.780396
vt 0.518066 0.825562
vt 0.542969 0.880188
vt 0.549805 0.726318
vt 0.564941 0.759155
vt 0.580566 0.805420
vt 0.586426 0.872070
vt 0.539551 0.714355
vt 0.456543 0.712402
vt 0.509277 0.682373
vt 0.533691 0.663574
vt 0.558594 0.690674
vt 0.581055 0.658447
vt 0.562988 0.633545
vt 0.478760 0.657227
vt 0.508789 0.615234
vt 0.527344 0.611572
vt 0.578125 0.611816
vt 0.599609 0.653076
vt 0.535645 0.581055
vt 0.491455 0.590088
vt 0.469482 0.681396
vt 0.453125 0.677979
vt 0.459229 0.646240
vt 0.445312 0.705322
vt 0.408447 0.738770
vt 0.360107 0.777466
vt 0.333496 0.788086
vt 0.302734 0.790405
vt 0.257080 0.789551
vt 0.513184 0.952423
vt 0.556641 0.945465
vt 0.612305 0.917480
vt 0.586914 0.750366
vt 0.560547 0.717773
vt 0.609863 0.804565
vt 0.553711 0.708740
vt 0.561035 0.690918
vt 0.215820 0.030762
vt 0.209106 0.008789
vt 0.225708 0.002441
vt 0.242554 0.020020
vt 0.172241 0.046875
vt 0.169678 0.021484
vt 0.141357 0.059082
vt 0.116211 0.037109
vt 0.079529 0.040527
vt 0.116211 0.037109
vt 0.110779 0.071289
vt 0.087158 0.082031
vt 0.329834 0.932495
vt 0.283447 0.941925
vt 0.368164 0.933167
vt 0.421387 0.940704
vt 0.481201 0.953003
vt 0.515137 0.964508
vt 0.560547 0.963440
vt 0.601074 0.935852
vt 0.277832 0.501221
vt 0.230347 0.482910
vt 0.246948 0.468750
vt 0.282227 0.476074
vt 0.336914 0.473145
vt 0.342041 0.510254
vt 0.405518 0.447266
vt 0.454834 0.494629
vt 0.208740 0.469238
vt 0.227173 0.458008
vt 0.204834 0.437012
vt 0.231201 0.429199
vt 0.192993 0.366211
vt 0.239990 0.387695
vt 0.333252 0.439453
vt 0.396240 0.417480
vt 0.282227 0.441895
vt 0.248413 0.437500
vt 0.327148 0.391113
vt 0.389404 0.380371
vt 0.276611 0.390137
vt 0.245605 0.387695
vt 0.195679 0.338379
vt 0.200439 0.267578
vt 0.222534 0.308594
vt 0.239746 0.353027
vt 0.232666 0.302734
vt 0.223877 0.257812
vt 0.242432 0.350098
vt 0.274902 0.291504
vt 0.267578 0.247559
vt 0.278076 0.346191
vt 0.312256 0.242188
vt 0.319580 0.292969
vt 0.321777 0.348145
vt 0.378418 0.280273
vt 0.375977 0.239258
vt 0.382324 0.344238
vt 0.154907 0.328613
vt 0.150757 0.351562
vt 0.097778 0.354980
vt 0.090881 0.324219
vt 0.091736 0.270996
vt 0.162476 0.271484
vt 0.253662 0.176270
vt 0.287842 0.170410
vt 0.311768 0.171387
vt 0.216064 0.187012
vt 0.183228 0.194336
vt 0.142334 0.201660
vt 0.091919 0.213379
vt 0.465576 0.409180
vt 0.453857 0.338379
vt 0.406738 0.243164
vt 0.126343 0.162109
vt 0.078064 0.167969
vt 0.204590 0.134766
vt 0.169678 0.148926
vt 0.244629 0.120605
vt 0.279541 0.108887
vt 0.172241 0.046875
vt 0.215820 0.030762
vt 0.230469 0.078125
vt 0.191162 0.092285
vt 0.256592 0.062988
vt 0.242554 0.020020
vt 0.087158 0.082031
vt 0.110779 0.071289
vt 0.120239 0.124512
vt 0.081299 0.128418
vt 0.141357 0.059082
vt 0.158203 0.108398
vt 0.320312 0.158203
vt 0.075439 0.210449
vt 0.078186 0.272461
vn 0.1918 0.9669 -0.1683
vn 0.5214 0.8349 0.1764
vn 0.4912 0.8685 -0.0668
vn 0.4127 0.8765 -0.2477
vn 0.1372 0.8899 -0.4351
vn 0.1915 0.9577 -0.2150
vn 0.3875 0.8964 -0.2152
vn 0.1994 0.7701 -0.6059
vn 0.7322 0.4894 0.4737
vn 0.8250 0.5591 0.0821
vn 0.6522 0.6991 -0.2929
vn 0.6007 0.7264 -0.3338
vn 0.2930 0.6915 -0.6603
vn -0.1449 0.5993 -0.7873
vn 0.6076 0.7173 -0.3411
vn 0.4431 0.6864 -0.5766
vn 0.5923 0.7335 -0.3334
vn 0.8891 0.4503 0.0821
vn 0.9632 0.2556 0.0826
vn 0.7431 0.5072 -0.4365
vn 0.7288 0.5395 -0.4216
vn 0.5852 0.5773 -0.5695
vn 0.9670 0.2545 -0.0117
vn 0.7976 0.3811 -0.4676
vn 0.7962 0.4118 -0.4432
vn 0.6305 0.4738 -0.6148
vn -0.1534 0.9796 -0.1298
vn -0.0902 0.9925 -0.0824
vn 0.2546 0.9050 0.3408
vn -0.2554 0.9156 -0.3105
vn -0.2321 0.6177 -0.7514
vn -0.8172 0.3402 -0.4653
vn -0.8992 0.4280 -0.0903
vn -0.8363 0.5379 0.1060
vn -0.7891 0.5928 0.1610
vn -0.3326 0.5752 0.7474
vn -0.9263 -0.3244 0.1915
vn -0.8974 -0.2704 0.3488
vn -0.8728 -0.3641 0.3250
vn -0.4882 -0.3476 0.8006
vn -0.9529 -0.0745 0.2941
vn -0.6455 0.5516 -0.5282
vn -0.8905 0.3256 0.3178
vn -0.9345 0.0743 0.3480
vn -0.7438 0.0669 0.6651
vn -0.3585 -0.5632 0.7445
vn -0.7123 -0.6651 0.2243
vn -0.7989 0.5549 -0.2322
vn -0.9533 0.0039 -0.3021
vn -0.8228 -0.5551 -0.1220
vn -0.3021 -0.9533 -0.0039
vn -0.0274 -0.8803 0.4735
vn -0.4341 -0.8096 -0.3950
vn -0.6940 -0.0588 -0.7176
vn -0.7180 0.6867 -0.1137
vn -0.4589 0.6551 -0.6002
vn -0.5067 0.5774 -0.6402
vn -0.4885 0.7933 -0.3634
vn -0.3326 0.5752 -0.7474
vn -0.0588 0.6940 -0.7176
vn 0.2551 0.6475 -0.7181
vn 0.3260 0.5853 -0.7424
vn 0.4208 0.5310 -0.7355
vn 0.7007 0.4423 0.5598
vn 0.4825 0.2864 0.8277
vn 0.0587 -0.1762 0.9826
vn -0.6002 -0.6709 0.4355
vn -0.6857 -0.6624 0.3018
vn -0.4420 -0.8331 0.3325
vn -0.3896 -0.2794 0.8776
vn -0.4446 0.0669 0.8932
vn 0.8714 -0.0977 -0.4807
vn 0.8829 -0.0981 -0.4591
vn 0.8680 -0.0746 -0.4910
vn 0.8567 -0.0587 -0.5125
vn 0.8518 -0.1609 -0.4985
vn 0.8572 -0.1605 -0.4893
vn 0.8516 -0.1845 -0.4906
vn 0.8523 -0.2003 -0.4831
vn 0.5455 0.1295 -0.8280
vn 0.4108 0.0196 -0.9115
vn 0.5449 0.1372 -0.8272
vn 0.6545 0.2391 -0.7172
vn 0.8130 -0.0746 0.5774
vn 0.9217 0.1843 0.3412
vn 0.8346 -0.0823 0.5447
vn 0.8954 0.1524 0.4183
vn 0.8513 0.2393 0.4669
vn 0.7195 0.4286 0.5465
vn 0.5122 0.3636 0.7781
vn 0.0511 0.2004 0.9784
vn -0.1920 0.9757 -0.1058
vn -0.3800 0.9049 -0.1919
vn -0.5835 0.8105 -0.0508
vn -0.5608 0.8275 0.0274
vn -0.6002 0.7964 0.0744
vn -0.1606 0.9829 -0.0901
vn -0.3103 0.6482 0.6954
vn 0.1451 0.7487 0.6468
vn -0.5857 0.6880 -0.4285
vn -0.6929 0.6224 -0.3640
vn -0.6601 0.2539 -0.7070
vn -0.8683 0.2868 -0.4047
vn -0.8021 -0.2465 -0.5439
vn -0.8673 -0.1217 -0.4827
vn -0.9212 0.2548 0.2940
vn -0.5510 0.0586 0.8324
vn -0.9055 0.3332 0.2626
vn -0.9163 0.3814 0.1219
vn -0.8948 -0.2227 0.3869
vn -0.4662 -0.2938 0.8345
vn -0.9042 -0.2232 0.3641
vn -0.9697 -0.2238 0.0982
vn -0.7344 -0.3810 -0.5616
vn -0.4359 -0.8993 -0.0354
vn -0.6303 -0.6537 -0.4189
vn -0.7963 -0.4355 -0.4198
vn -0.4669 -0.8828 0.0510
vn -0.1915 -0.9811 0.0273
vn -0.7616 -0.6366 0.1211
vn -0.4128 -0.9004 0.1376
vn -0.1764 -0.9837 0.0353
vn -0.7102 -0.6396 0.2943
vn -0.1761 -0.9821 0.0665
vn -0.4288 -0.8771 0.2163
vn -0.7280 -0.5941 0.3423
vn -0.0353 -0.7260 0.6868
vn 0.3636 -0.7781 0.5122
vn -0.3110 -0.5709 0.7598
vn -0.8037 -0.5841 0.1137
vn -0.5948 -0.7996 0.0827
vn -0.7787 -0.6065 0.1604
vn -0.8820 -0.4508 0.1372
vn -0.7068 -0.6287 -0.3241
vn -0.6009 -0.7738 0.2004
vn 0.3322 -0.9184 -0.2149
vn 0.4512 -0.8830 -0.1295
vn 0.6694 -0.7399 0.0666
vn 0.3027 -0.9318 -0.2005
vn 0.3182 -0.9231 -0.2161
vn 0.3104 -0.9156 -0.2554
vn 0.0353 -0.7738 -0.6324
vn 0.2397 -0.0275 0.9705
vn 0.2387 -0.2621 0.9351
vn 0.5191 -0.3006 0.8001
vn 0.7007 -0.5598 -0.4423
vn 0.5926 -0.5455 -0.5926
vn 0.7324 -0.5366 -0.4191
vn 0.7171 -0.5446 -0.4349
vn 0.7023 -0.5375 -0.4668
vn 0.7621 -0.5511 -0.3400
vn 0.8439 -0.3337 -0.4200
vn 0.8285 -0.3416 -0.4437
vn 0.8124 -0.3964 -0.4278
vn 0.7881 -0.4352 -0.4352
vn 0.8498 -0.3485 -0.3955
vn 0.8062 -0.3815 -0.4523
vn 0.7304 -0.3007 -0.6133
vn 0.7253 -0.3882 -0.5685
vn 0.7413 -0.4746 -0.4746
vn 0.7877 -0.4115 -0.4585
vn 0.8093 -0.3870 -0.4418
vn 0.7649 -0.4746 -0.4354
vn 0.8807 -0.2936 0.3718
vn -0.2941 -0.2235 -0.9293
vn -0.6444 -0.1679 -0.7460
usemtl Material.000001
s 1
f 2/1/1 3/2/2 4/3/3
f 4/3/3 5/4/4 2/1/1
f 6/5/5 7/6/6 8/7/7
f 8/7/7 9/8/8 6/5/5
f 5/4/4 8/7/7 7/6/6
f 7/6/6 2/1/1 5/4/4
f 4/3/3 3/2/2 10/9/9
f 10/9/9 11/10/10 4/3/3
f 12/11/11 8/7/7 5/4/4
f 5/4/4 13/12/12 12/11/11
f 4/3/3 11/10/10 13/12/12
f 13/12/12 5/4/4 4/3/3
f 12/11/11 14/13/13 9/8/8
f 9/8/8 8/7/7 12/11/11
f 9/8/8 14/13/13 15/14/14
f 15/14/14 6/5/5 9/8/8
f 16/15/15 17/16/16 14/13/13
f 14/13/13 12/11/11 16/15/15
f 18/17/17 16/15/15 12/11/11
f 12/11/11 13/12/12 18/17/17
f 19/18/18 18/17/17 13/12/12
f 13/12/12 11/10/10 19/18/18
f 18/17/17 19/18/18 20/19/19
f 20/19/19 21/20/20 18/17/17
f 16/15/15 18/17/17 21/20/20
f 21/20/20 22/21/21 16/15/15
f 17/16/16 16/15/15 22/21/21
f 22/21/21 23/22/22 17/16/16
f 21/20/20 20/19/19 24/23/23
f 24/23/23 25/24/24 21/20/20
f 25/24/24 26/25/25 22/21/21
f 22/21/21 21/20/20 25/24/24
f 26/25/25 27/26/26 23/22/22
f 23/22/22 22/21/21 26/25/25
f 7/6/6 28/27/27 29/28/28
f 29/28/28 2/1/1 7/6/6
f 3/2/2 2/1/1 29/28/28
f 29/28/28 30/29/29 3/2/2
f 28/27/27 7/6/6 6/5/5
f 6/5/5 31/30/30 28/27/27
f 32/31/31 31/30/30 6/5/5
f 6/5/5 15/14/14 32/31/31
f 32/31/31 33/32/32 34/33/33
f 34/33/33 31/30/30 32/31/31
f 28/27/27 31/30/30 34/33/33
f 34/33/33 35/34/34 28/27/27
f 29/28/28 28/27/27 35/34/34
f 35/34/34 36/35/35 29/28/28
f 36/35/35 37/36/36 30/29/29
f 30/29/29 29/28/28 36/35/35
f 38/37/37 39/38/38 35/34/34
f 35/34/34 34/33/33 38/37/37
f 36/35/35 35/34/34 39/38/38
f 39/38/38 40/39/39 36/35/35
f 41/40/40 37/36/36 36/35/35
f 36/35/35 40/39/39 41/40/40
f 34/33/33 33/32/32 42/41/41
f 42/41/41 38/37/37 34/33/33
f 43/42/42 33/32/32 32/31/31
f 32/31/31 15/14/14 43/42/42
f 44/43/43 45/44/44 46/45/45
f 46/45/45 42/41/41 44/43/43
f 47/46/46 46/45/45 45/44/44
f 45/44/44 48/47/47 47/46/46
f 49/48/48 50/49/49 45/44/44
f 45/44/44 44/43/43 49/48/48
f 51/50/50 48/47/47 45/44/44
f 45/44/44 50/49/49 51/50/50
f 48/47/47 52/51/51 53/52/52
f 53/52/52 47/46/46 48/47/47
f 51/50/50 54/53/53 52/51/51
f 52/51/51 48/47/47 51/50/50
f 51/50/50 50/49/49 55/54/54
f 55/54/54 54/53/53 51/50/50
f 44/43/43 42/41/41 33/32/32
f 33/32/32 43/42/42 44/43/43
f 44/43/43 43/42/42 56/55/55
f 56/55/55 49/48/48 44/43/43
f 56/55/55 57/56/56 58/57/57
f 58/57/57 49/48/48 56/55/55
f 59/58/58 57/56/56 56/55/55
f 56/55/55 43/42/42 59/58/58
f 60/59/59 59/58/58 43/42/42
f 43/42/42 15/14/14 60/59/59
f 15/14/14 14/13/13 61/60/60
f 61/60/60 60/59/59 15/14/14
f 61/60/60 14/13/13 17/16/16
f 17/16/16 62/61/61 61/60/60
f 62/61/61 17/16/16 23/22/22
f 23/22/22 63/62/62 62/61/61
f 64/63/63 63/62/62 23/22/22
f 23/22/22 27/26/26 64/63/63
f 3/2/2 30/29/29 65/64/64
f 65/64/64 10/9/9 3/2/2
f 30/29/29 37/36/36 66/65/65
f 66/65/65 65/64/64 30/29/29
f 66/65/65 37/36/36 41/40/40
f 41/40/40 67/66/66 66/65/65
f 68/67/67 39/38/38 38/37/37
f 38/37/37 69/68/68 68/67/67
f 70/69/69 40/39/39 39/38/38
f 39/38/38 68/67/67 70/69/69
f 41/40/40 40/39/39 70/69/69
f 70/69/69 67/66/66 41/40/40
f 71/70/70 42/41/41 46/45/45
f 46/45/45 72/71/71 71/70/70
f 42/41/41 71/70/70 69/68/68
f 69/68/68 38/37/37 42/41/41
f 72/71/71 46/45/45 47/46/46
f 47/46/46 53/52/52 72/71/71
f 58/57/57 55/54/54 50/49/49
f 50/49/49 49/48/48 58/57/57
f 73/72/72 74/73/73 75/74/74
f 75/74/74 76/75/75 73/72/72
f 73/72/72 77/76/76 78/77/77
f 78/77/77 74/73/73 73/72/72
f 78/77/77 77/76/76 79/78/78
f 79/78/78 80/79/79 78/77/77
f 81/80/80 82/81/81 83/82/82
f 83/82/82 84/83/83 81/80/80
f 24/23/23 20/19/19 85/84/84
f 85/84/84 86/85/85 24/23/23
f 87/86/86 85/84/84 20/19/19
f 20/19/19 19/18/18 87/86/86
f 19/18/18 11/10/10 88/87/87
f 88/87/87 87/86/86 19/18/18
f 11/10/10 10/9/9 89/88/88
f 89/88/88 88/87/87 11/10/10
f 90/89/89 65/64/64 66/65/65
f 66/65/65 91/90/90 90/89/89
f 89/88/88 10/9/9 65/64/64
f 65/64/64 90/89/89 89/88/88
f 66/65/65 67/66/66 92/91/91
f 92/91/91 91/90/90 66/65/65
f 93/92/92 94/93/93 95/94/94
f 95/94/94 96/95/95 93/92/92
f 96/95/95 97/96/96 98/97/97
f 98/97/97 93/92/92 96/95/95
f 98/97/97 97/96/96 99/98/98
f 99/98/98 100/99/99 98/97/97
f 94/93/93 101/100/100 102/101/101
f 102/101/101 95/94/94 94/93/93
f 102/101/101 101/100/100 103/102/102
f 103/102/102 104/103/103 102/101/101
f 104/103/103 103/102/102 105/104/104
f 105/104/104 106/105/105 104/103/103
f 97/96/96 107/106/106 108/107/107
f 108/107/107 99/98/98 97/96/96
f 107/106/106 97/96/96 96/95/95
f 96/95/95 109/108/108 107/106/106
f 95/94/94 110/109/109 109/108/108
f 109/108/108 96/95/95 95/94/94
f 102/101/101 104/103/103 110/109/109
f 110/109/109 95/94/94 102/101/101
f 107/106/106 111/110/110 112/111/111
f 112/111/111 108/107/107 107/106/106
f 111/110/110 107/106/106 109/108/108
f 109/108/108 113/112/112 111/110/110
f 110/109/109 114/113/113 113/112/112
f 113/112/112 109/108/108 110/109/109
f 104/103/103 106/105/105 114/113/113
f 114/113/113 110/109/109 104/103/103
f 115/114/114 116/115/115 117/116/116
f 117/116/116 118/117/117 115/114/114
f 118/117/117 106/105/105 105/104/104
f 105/104/104 115/114/114 118/117/117
f 119/118/118 117/116/116 116/115/115
f 116/115/115 120/119/119 119/118/118
f 121/120/120 118/117/117 117/116/116
f 117/116/116 119/118/118 121/120/120
f 121/120/120 114/113/113 106/105/105
f 106/105/105 118/117/117 121/120/120
f 122/121/121 119/118/118 120/119/119
f 120/119/119 123/122/122 122/121/121
f 124/123/123 121/120/120 119/118/118
f 119/118/118 122/121/121 124/123/123
f 124/123/123 113/112/112 114/113/113
f 114/113/113 121/120/120 124/123/123
f 125/124/124 126/125/125 122/121/121
f 122/121/121 123/122/122 125/124/124
f 124/123/123 122/121/121 126/125/125
f 126/125/125 127/126/126 124/123/123
f 113/112/112 124/123/123 127/126/126
f 127/126/126 111/110/110 113/112/112
f 128/127/127 126/125/125 125/124/124
f 125/124/124 129/128/128 128/127/127
f 130/129/129 127/126/126 126/125/125
f 126/125/125 128/127/127 130/129/129
f 130/129/129 112/111/111 111/110/110
f 111/110/110 127/126/126 130/129/129
f 131/130/130 115/114/114 105/104/104
f 105/104/104 132/131/131 131/130/130
f 133/132/132 134/133/133 131/130/130
f 131/130/130 132/131/131 133/132/132
f 134/133/133 135/134/134 136/135/135
f 136/135/135 131/130/130 134/133/133
f 116/115/115 115/114/114 131/130/130
f 131/130/130 136/135/135 116/115/115
f 125/124/124 123/122/122 137/136/136
f 137/136/136 138/137/137 125/124/124
f 139/138/138 129/128/128 125/124/124
f 125/124/124 138/137/137 139/138/138
f 123/122/122 120/119/119 140/139/139
f 140/139/139 137/136/136 123/122/122
f 116/115/115 141/140/140 140/139/139
f 140/139/139 120/119/119 116/115/115
f 136/135/135 142/141/141 141/140/140
f 141/140/140 116/115/115 136/135/135
f 135/134/134 143/142/142 142/141/141
f 142/141/141 136/135/135 135/134/134
f 99/98/98 108/107/107 144/143/143
f 144/143/143 100/99/99 99/98/98
f 112/111/111 145/144/144 144/143/143
f 144/143/143 108/107/107 112/111/111
f 145/144/144 112/111/111 130/129/129
f 130/129/129 146/145/145 145/144/144
f 146/145/145 130/129/129 128/127/127
f 128/127/127 129/128/128 146/145/145
f 147/146/146 142/141/141 143/142/142
f 143/142/142 148/147/147 147/146/146
f 149/148/148 140/139/139 141/140/140
f 141/140/140 150/149/149 149/148/148
f 137/136/136 140/139/139 149/148/148
f 149/148/148 151/150/150 137/136/136
f 151/150/150 152/151/151 138/137/137
f 138/137/137 137/136/136 151/150/150
f 150/149/149 141/140/140 142/141/141
f 142/141/141 147/146/146 150/149/149
f 153/152/152 154/153/153 155/154/154
f 155/154/154 156/155/155 153/152/152
f 157/156/156 155/154/154 154/153/153
f 154/153/153 158/157/157 157/156/156
f 155/154/154 157/156/156 152/151/151
f 152/151/151 151/150/150 155/154/154
f 156/155/155 155/154/154 151/150/150
f 151/150/150 149/148/148 156/155/155
f 159/158/158 160/159/159 161/160/160
f 161/160/160 162/161/161 159/158/158
f 160/159/159 163/162/162 164/163/163
f 164/163/163 161/160/160 160/159/159
f 163/162/162 153/152/152 156/155/155
f 156/155/155 164/163/163 163/162/162
f 164/163/163 156/155/155 149/148/148
f 149/148/148 150/149/149 164/163/163
f 161/160/160 164/163/163 150/149/149
f 150/149/149 147/146/146 161/160/160
f 148/147/147 162/161/161 161/160/160
f 161/160/160 147/146/146 148/147/147
f 138/137/137 152/151/151 165/164/164
f 165/164/164 139/138/138 138/137/137
f 165/164/164 146/145/145 129/128/128
f 129/128/128 139/138/138 165/164/164
f 143/142/142 166/165/165 148/147/147
f 135/134/134 134/133/133 167/166/166
f 143/142/142 135/134/134 167/166/166
f 167/166/166 166/165/165 143/142/142
