# Blender v2.79 (sub 0) OBJ File: ''
# www.blender.org
mtllib X02RightPawBack.mtl
o CPA.001
v 26.234375 -12.898438 4.058592
v 30.734375 -14.742188 0.935544
v 31.296875 -12.164062 0.935545
v 27.046875 -9.531251 3.935545
v 30.859375 -14.796875 -0.002129
v 31.421875 -12.140625 -0.064638
v 29.734375 -17.250000 0.998044
v 24.859375 -17.265625 4.121091
v 25.046875 -17.390625 0.122861
v 29.921875 -17.203125 -0.002129
v 23.546875 -21.531250 0.122860
v 23.421875 -21.390627 8.124996
v 21.984375 -23.312500 3.435543
v 21.921875 -23.343750 -0.002132
v 18.671875 -23.328125 3.310543
v 15.164062 -23.359375 3.185543
v 15.351562 -23.359375 0.060390
v 18.671875 -23.359375 -0.002132
v 13.601562 -21.484375 0.122860
v 15.351562 -23.359375 0.060390
v 15.164062 -23.359375 3.185543
v 13.726562 -21.437502 8.374996
v 7.355469 -17.687500 1.123044
v 7.480469 -17.812500 0.060391
v 12.414062 -18.375000 0.185422
v 12.351562 -18.281250 3.873044
v 6.230469 -15.343750 0.935544
v 6.167969 -15.343750 -0.002131
v 7.480469 -17.812500 0.060391
v 10.914062 -13.945313 4.183591
v 5.792969 -12.835938 0.935545
v 9.664062 -9.968751 3.873045
v 9.164062 -9.585938 0.185423
v 5.730469 -12.773438 -0.002131
v 11.601562 -13.265627 11.187498
v 10.414062 -9.500002 9.937498
v 24.734375 -12.539064 11.406248
v 22.984375 -16.468752 13.406247
v 18.734375 -21.531252 8.312496
v 15.226562 -18.406252 9.968747
v 18.359375 -18.453127 10.031247
v 18.421875 -17.250002 11.531247
v 15.101562 -17.187502 11.218747
v 18.734375 -19.765627 8.874997
v 21.421875 -19.671877 8.749997
v 21.359375 -18.500002 10.124997
v 23.171875 -19.031252 10.718747
v 13.289062 -19.031252 10.374997
v 13.039062 -16.640627 12.874997
v 27.734375 -9.632812 0.185423
v 18.359375 -16.718752 13.312497
v 18.171875 -15.093753 16.874998
v 13.476562 -15.343753 16.343748
v 21.921875 -23.343750 -0.002132
v 21.984375 -23.312500 3.435543
v 21.234375 -17.078127 11.562497
v 15.414062 -19.687502 8.906247
v 29.734375 -17.250000 0.998044
v 29.921875 -17.203125 -0.002129
v 25.796875 -9.890627 9.874998
v 14.789062 -20.515627 9.187496
v 18.796875 -20.609377 9.156246
v 14.539062 -18.968752 10.499997
v 14.351562 -17.468752 12.031247
v 18.421875 -17.562502 12.374997
v 21.796875 -17.343752 12.437497
v 21.921875 -19.078127 10.687497
v 22.109375 -20.500002 9.031246
vt 0.641602 0.361328
vt 0.598633 0.331055
vt 0.587891 0.351562
vt 0.625488 0.388672
vt 0.590820 0.327148
vt 0.579590 0.350586
vt 0.598633 0.291504
vt 0.663086 0.325684
vt 0.628418 0.259766
vt 0.592285 0.285156
vt 0.659180 0.234375
vt 0.713867 0.308594
vt 0.694824 0.244141
vt 0.675293 0.219727
vt 0.741211 0.250000
vt 0.770996 0.239258
vt 0.760742 0.212402
vt 0.731934 0.221680
vt 0.798340 0.197754
vt 0.775879 0.194824
vt 0.773926 0.223633
vt 0.798828 0.283203
vt 0.874023 0.213867
vt 0.873535 0.204102
vt 0.828613 0.201172
vt 0.844238 0.259277
vt 0.904297 0.229980
vt 0.908691 0.222656
vt 0.884277 0.213867
vt 0.881348 0.278320
vt 0.923340 0.241699
vt 0.916992 0.292480
vt 0.946777 0.276367
vt 0.929688 0.236328
vt 0.858398 0.338379
vt 0.895996 0.343262
vt 0.701172 0.394531
vt 0.736328 0.370605
vt 0.754395 0.295410
vt 0.793945 0.316895
vt 0.767090 0.325195
vt 0.770996 0.340820
vt 0.799316 0.330566
vt 0.759766 0.312012
vt 0.736816 0.318359
vt 0.742188 0.333008
vt 0.724609 0.338867
vt 0.812012 0.309570
vt 0.822266 0.339355
vt 0.590820 0.390625
vt 0.776855 0.357910
vt 0.788574 0.391113
vt 0.828125 0.373535
vt 0.703613 0.229980
vt 0.712891 0.260254
vt 0.748047 0.349121
vt 0.788086 0.304199
vt 0.612305 0.311035
vt 0.604004 0.307129
vt 0.676270 0.410156
vt 0.792969 0.296387
vt 0.757324 0.305664
vt 0.801758 0.313965
vt 0.808105 0.333496
vt 0.773438 0.348145
vt 0.743164 0.356934
vt 0.734375 0.335449
vt 0.728516 0.315430
vn 0.7982 -0.2162 0.5623
vn 0.8132 -0.2397 0.5303
vn 0.8529 0.2869 0.4362
vn 0.8669 0.0902 0.4903
vn 0.9479 -0.2871 0.1377
vn 0.9267 0.3558 0.1212
vn 0.0353 -0.9992 -0.0196
vn 0.8655 -0.4113 0.2859
vn 0.5748 -0.8172 0.0430
vn 0.0353 -0.9985 -0.0430
vn 0.8635 -0.5040 0.0195
vn 0.6142 -0.6690 0.4186
vn 0.7671 -0.6412 0.0197
vn 0.7415 -0.6709 -0.0039
vn -0.0039 -0.9843 0.1765
vn -0.0039 -0.9829 0.1841
vn 0.0039 -1.0000 0.0039
vn 0.0039 -0.9999 0.0118
vn -0.8526 -0.5226 -0.0039
vn -0.7334 -0.6785 -0.0431
vn -0.7672 -0.6413 0.0040
vn -0.5520 -0.7164 0.4267
vn -0.6100 -0.6809 0.4054
vn -0.1141 -0.9878 0.1063
vn -0.6242 -0.7812 0.0118
vn -0.8459 -0.4839 0.2243
vn -0.8427 -0.2548 0.4743
vn -0.9520 -0.3017 0.0509
vn -0.8828 -0.4669 -0.0510
vn -0.8193 -0.2548 0.5136
vn -0.8788 0.2305 0.4178
vn -0.8864 0.0433 0.4609
vn -0.6700 0.7248 0.1606
vn -0.9423 0.3245 0.0821
vn -0.9455 -0.3021 0.1216
vn -0.9539 -0.2708 0.1295
vn 0.9356 -0.2858 0.2075
vn 0.5245 -0.6739 0.5203
vn 0.0118 -0.8278 0.5610
vn 0.3878 -0.6072 0.6934
vn -0.0118 -0.7187 0.6952
vn 0.0197 -0.9867 0.1612
vn 0.3007 -0.9024 0.3087
vn 0.0118 -0.2082 0.9780
vn -0.3178 -0.3256 0.8905
vn -0.4673 -0.6558 0.5929
vn 0.6084 -0.5612 0.5612
vn -0.6480 -0.5616 0.5145
vn -0.4819 -0.7562 0.4427
vn 0.5681 0.8189 0.0823
vn -0.0039 -0.8433 0.5374
vn 0.0144 -0.9099 0.4146
vn -0.0276 -0.9240 0.3814
vn 0.0118 -0.9796 0.2007
vn -0.3252 -0.9129 0.2468
vn 0.2936 -0.2309 0.9276
vn 0.7565 -0.2783 0.5919
vn 0.9190 -0.3637 0.1525
vn 0.9478 -0.2478 0.2006
vn 0.1448 -0.5205 0.8415
vn 0.0275 -0.2156 0.9761
vn 0.3875 -0.5990 0.7007
vn 0.1062 -0.8144 0.5705
vn 0.0117 -0.9814 0.1916
vn -0.1536 -0.8228 0.5473
vn -0.4522 -0.6725 0.5859
vn -0.1453 -0.6166 0.7737
usemtl Material.002
s 1
f 1/1/1 2/2/2 3/3/3
f 3/3/3 4/4/4 1/1/1
f 5/5/5 6/6/6 3/3/3
f 3/3/3 2/2/2 5/5/5
f 7/7/7 8/8/8 9/9/9
f 9/9/9 10/10/10 7/7/7
f 11/11/11 9/9/9 8/8/8
f 8/8/8 12/12/12 11/11/11
f 11/11/11 12/12/12 13/13/13
f 13/13/13 14/14/14 11/11/11
f 15/15/15 16/16/16 17/17/17
f 17/17/17 18/18/18 15/15/15
f 19/19/19 20/20/20 21/21/21
f 21/21/21 22/22/22 19/19/19
f 23/23/23 24/24/24 25/25/25
f 25/25/25 26/26/26 23/23/23
f 23/23/23 27/27/27 28/28/28
f 28/28/28 29/29/29 23/23/23
f 30/30/30 27/27/27 23/23/23
f 23/23/23 26/26/26 30/30/30
f 31/31/31 32/32/32 33/33/33
f 33/33/33 34/34/34 31/31/31
f 30/30/30 35/35/35 36/36/36
f 36/36/36 32/32/32 30/30/30
f 8/8/8 1/1/1 37/37/37
f 37/37/37 38/38/38 8/8/8
f 19/19/19 22/22/22 26/26/26
f 26/26/26 25/25/25 19/19/19
f 39/39/39 22/22/22 16/16/16
f 16/16/16 15/15/15 39/39/39
f 40/40/40 41/41/41 42/42/42
f 42/42/42 43/43/43 40/40/40
f 44/44/44 45/45/45 46/46/46
f 46/46/46 41/41/41 44/44/44
f 47/47/47 12/12/12 8/8/8
f 8/8/8 38/38/38 47/47/47
f 48/48/48 49/49/49 26/26/26
f 26/26/26 22/22/22 48/48/48
f 50/50/50 4/4/4 3/3/3
f 3/3/3 6/6/6 50/50/50
f 51/51/51 52/52/52 53/53/53
f 53/53/53 49/49/49 51/51/51
f 54/54/18 55/55/54 15/15/15
f 15/15/15 18/18/18 54/54/18
f 55/55/54 12/12/12 39/39/39
f 39/39/39 15/15/15 55/55/54
f 41/41/41 46/46/46 56/56/55
f 56/56/55 42/42/42 41/41/41
f 41/41/41 40/40/40 57/57/56
f 57/57/56 44/44/44 41/41/41
f 52/52/52 51/51/51 38/38/38
f 1/1/1 8/8/8 58/58/57
f 58/58/57 2/2/2 1/1/1
f 2/2/2 58/58/57 59/59/58
f 59/59/58 5/5/5 2/2/2
f 1/1/1 4/4/4 60/60/59
f 60/60/59 37/37/37 1/1/1
f 31/31/31 34/34/34 28/28/28
f 28/28/28 27/27/27 31/31/31
f 30/30/30 32/32/32 31/31/31
f 31/31/31 27/27/27 30/30/30
f 26/26/26 49/49/49 35/35/35
f 35/35/35 30/30/30 26/26/26
f 61/61/60 22/22/22 39/39/39
f 39/39/39 62/62/61 61/61/60
f 63/63/62 48/48/48 22/22/22
f 22/22/22 61/61/60 63/63/62
f 64/64/63 49/49/49 48/48/48
f 48/48/48 63/63/62 64/64/63
f 65/65/64 51/51/51 49/49/49
f 49/49/49 64/64/63 65/65/64
f 66/66/65 38/38/38 51/51/51
f 51/51/51 65/65/64 66/66/65
f 67/67/66 47/47/47 38/38/38
f 38/38/38 66/66/65 67/67/66
f 68/68/67 12/12/12 47/47/47
f 47/47/47 67/67/66 68/68/67
f 62/62/61 39/39/39 12/12/12
f 12/12/12 68/68/67 62/62/61
f 57/57/56 61/61/60 62/62/61
f 62/62/61 44/44/44 57/57/56
f 40/40/40 63/63/62 61/61/60
f 61/61/60 57/57/56 40/40/40
f 43/43/43 64/64/63 63/63/62
f 63/63/62 40/40/40 43/43/43
f 42/42/42 65/65/64 64/64/63
f 64/64/63 43/43/43 42/42/42
f 56/56/55 66/66/65 65/65/64
f 65/65/64 42/42/42 56/56/55
f 46/46/46 67/67/66 66/66/65
f 66/66/65 56/56/55 46/46/46
f 45/45/45 68/68/67 67/67/66
f 67/67/66 46/46/46 45/45/45
f 44/44/44 62/62/61 68/68/67
f 68/68/67 45/45/45 44/44/44
