# Blender v2.79 (sub 0) OBJ File: ''
# www.blender.org
mtllib X02RightPawFront.mtl
o CPA.001
v 26.296875 3.419920 12.625001
v 7.167969 -2.921876 3.935546
v 5.730469 0.109741 1.685547
v 17.609375 16.859375 4.246097
v 17.671875 20.187500 1.310550
v 14.164062 20.031250 1.310550
v 13.351562 16.765625 4.246097
v 17.609375 16.187500 5.058597
v 17.484375 15.195312 7.246096
v 20.671875 15.218749 7.183596
v 20.609375 16.187500 4.933597
v 17.734375 20.218750 -0.127072
v 14.164062 20.218750 -0.127072
v 22.234375 17.718750 0.310306
v 20.921875 20.218750 -0.064633
v 21.046875 20.078125 1.248050
v 21.921875 17.968750 1.060550
v 21.796875 16.859375 4.058597
v 22.234375 16.640625 1.810550
v 13.414062 18.562500 0.247928
v 13.414062 18.312500 1.373050
v 14.164062 20.031250 1.310550
v 14.164062 20.218750 -0.127072
v 13.351562 16.765625 4.246097
v 12.976562 16.781250 1.810550
v 11.476562 13.382812 1.873049
v 11.539062 13.140624 4.246096
v 24.921875 11.429688 2.185549
v 23.859375 14.531250 1.998049
v 23.609375 14.562499 4.121096
v 25.046875 10.960937 4.433596
v 23.296875 13.265624 8.281252
v 24.859375 11.164062 8.343752
v 11.664062 12.531249 8.062502
v 10.414062 10.312499 4.371096
v 10.351562 10.085937 8.343752
v 29.421875 10.484375 1.248049
v 26.859375 10.859375 1.185549
v 29.421875 10.453125 0.060396
v 26.984375 10.796875 0.247927
v 30.234375 7.179688 1.310548
v 30.234375 7.125000 0.122865
v 29.421875 10.453125 0.060396
v 29.421875 10.484375 1.248049
v 9.101562 9.937500 1.373049
v 5.917969 9.046875 1.373048
v 10.351562 10.367188 2.185549
v 9.226562 9.867188 0.185426
v 5.980469 9.148438 0.122865
v 5.355469 2.533203 1.248047
v 5.667969 5.429688 1.435548
v 5.605469 5.429688 0.122865
v 5.355469 2.500000 0.122864
v 5.917969 9.046875 1.373048
v 10.039062 5.183593 4.558595
v 10.414062 10.312499 4.371096
v 9.914062 3.583983 10.843751
v 10.164062 6.445311 9.937501
v 9.476562 1.279296 4.308594
v 25.671875 6.757811 10.906251
v 26.296875 3.361326 12.718751
v 26.734375 2.445312 4.246094
v 25.859375 6.824218 4.433595
v 30.859375 4.203125 1.310548
v 10.726562 6.542967 10.531251
v 10.289062 3.755857 11.718751
v 13.726562 6.367185 15.593751
v 13.539062 8.226561 13.781251
v 13.414062 10.343748 11.843752
v 13.351562 14.328123 9.093752
v 12.289062 12.070311 8.906252
v 11.289062 10.085936 9.062502
v 24.546875 15.093750 0.998049
v 24.609375 15.023438 0.497805
v 10.539062 14.015625 1.248049
v 10.351562 13.953125 0.497805
v 9.226562 9.867188 0.185426
v 9.601562 1.117188 0.185425
v 17.484375 10.757811 12.125002
v 17.609375 14.335936 9.125002
v 17.546875 8.624998 14.250001
v 21.671875 10.898436 11.375002
v 23.921875 10.921873 9.031252
v 22.984375 12.874998 8.968752
v 21.734375 14.382811 9.062502
v 24.734375 6.777342 11.375001
v 21.609375 8.312498 13.656251
v 17.484375 14.984374 8.375003
v 21.921875 15.015624 8.250003
v 13.101562 14.929687 8.343753
v 25.921875 3.427732 13.531251
v 13.414062 18.312500 1.373050
v 13.414062 18.562500 0.247928
v 22.234375 17.718750 0.310306
v 30.734375 3.810547 0.122864
v 5.980469 9.148438 0.122865
v 25.046875 10.960937 4.433596
v 17.546875 6.812498 16.062502
v 21.484375 6.355466 15.625001
v 21.796875 16.859375 4.058597
v 21.046875 20.078125 1.248050
v 14.476562 16.109375 5.058597
v 14.351562 15.164062 7.246096
v 20.921875 20.218750 -0.064633
v 20.796875 16.453125 4.996097
v 17.609375 16.468750 5.121097
v 20.859375 15.429687 7.371096
v 17.484375 15.398437 7.433596
v 14.101562 15.367187 7.433596
v 14.289062 16.375000 5.121097
vt 0.647949 0.056152
vt 0.640137 0.016113
vt 0.608398 0.023926
vt 0.608887 0.065430
vt 0.649902 0.065430
vt 0.654297 0.088867
vt 0.682129 0.080566
vt 0.676758 0.060547
vt 0.638184 0.003906
vt 0.605957 0.010254
vt 0.711426 0.006348
vt 0.690918 0.001465
vt 0.690918 0.014160
vt 0.712402 0.014160
vt 0.705078 0.047852
vt 0.721680 0.032227
vt 0.567383 0.033691
vt 0.572754 0.042969
vt 0.586426 0.030273
vt 0.578125 0.019531
vt 0.589355 0.070312
vt 0.567383 0.058594
vt 0.554688 0.089844
vt 0.570801 0.102051
vt 0.764648 0.068848
vt 0.741699 0.047852
vt 0.729004 0.063477
vt 0.756836 0.087402
vt 0.715820 0.100098
vt 0.736816 0.114746
vt 0.597656 0.125000
vt 0.556641 0.127441
vt 0.584961 0.146973
vt 0.801270 0.086426
vt 0.787109 0.068359
vt 0.810059 0.080078
vt 0.793945 0.063965
vt 0.841797 0.112305
vt 0.850586 0.107422
vt 0.833496 0.080566
vt 0.823730 0.086426
vt 0.523926 0.123047
vt 0.520508 0.153809
vt 0.542969 0.116211
vt 0.513184 0.120605
vt 0.508789 0.151367
vt 0.488281 0.218750
vt 0.489014 0.195312
vt 0.475342 0.197266
vt 0.480957 0.222656
vt 0.488770 0.163574
vt 0.539062 0.197754
vt 0.543457 0.151367
vt 0.589844 0.212402
vt 0.589844 0.183594
vt 0.530273 0.232910
vt 0.752930 0.159668
vt 0.765625 0.193359
vt 0.821777 0.168945
vt 0.797363 0.135254
vt 0.857422 0.136230
vt 0.595703 0.184570
vt 0.593262 0.212891
vt 0.643555 0.207520
vt 0.636719 0.184082
vt 0.629395 0.157715
vt 0.621094 0.113770
vt 0.606445 0.131836
vt 0.597168 0.149414
vt 0.748535 0.037598
vt 0.751953 0.034668
vt 0.542969 0.083984
vt 0.535645 0.083496
vt 0.523438 0.113770
vt 0.501953 0.255859
vt 0.666504 0.149902
vt 0.659180 0.106934
vt 0.672363 0.177734
vt 0.703613 0.138672
vt 0.728516 0.121582
vt 0.713379 0.107910
vt 0.697266 0.099609
vt 0.744629 0.163086
vt 0.708496 0.170898
vt 0.656738 0.098145
vt 0.697266 0.089355
vt 0.615723 0.105957
vt 0.761230 0.197754
vt 0.562500 0.041016
vt 0.551270 0.034668
vt 0.726074 0.014160
vt 0.868164 0.132812
vt 0.474121 0.163086
vt 0.775879 0.102051
vt 0.676270 0.201172
vt 0.709961 0.197266
vt 0.686035 0.047852
vt 0.670410 0.010254
vt 0.623047 0.073242
vt 0.625977 0.093262
vt 0.666992 -0.001953
vt 0.679199 0.059082
vt 0.649414 0.062500
vt 0.685059 0.081543
vt 0.654785 0.091309
vt 0.623535 0.094727
vt 0.620117 0.072266
vn 0.0039 0.8051 0.5931
vn -0.0117 0.9043 0.4267
vn -0.0197 0.8788 0.4768
vn -0.0118 0.8179 0.5753
vn 0.0118 0.4519 0.8920
vn -0.0118 0.9780 -0.2082
vn -0.3719 0.9203 -0.1214
vn -0.3332 0.4665 0.8193
vn -0.0195 0.9992 0.0353
vn 0.0039 0.9916 0.1293
vn 0.9055 0.3959 0.1528
vn 0.8883 0.4579 -0.0352
vn 0.9054 0.4193 0.0667
vn 0.8660 0.4349 0.2469
vn 0.8243 0.5430 0.1602
vn 0.7873 0.4974 0.3643
vn -0.9078 0.4127 0.0747
vn -0.9124 0.3799 0.1527
vn -0.9053 0.4115 0.1058
vn -0.9058 0.4196 0.0588
vn -0.9018 0.4099 0.1366
vn -0.8118 0.3804 0.4431
vn -0.7546 0.3558 0.5513
vn -0.9073 0.4124 0.0825
vn 0.6924 0.5986 0.4029
vn 0.7934 0.4495 0.4104
vn 0.8495 0.5050 0.1527
vn 0.7881 0.6077 0.0980
vn 0.7649 0.5139 0.3884
vn 0.8108 0.4582 0.3643
vn -0.8249 0.4261 0.3714
vn -0.8270 0.5605 0.0431
vn -0.8754 0.3258 0.3572
vn 0.1370 0.9906 -0.0039
vn 0.4518 0.8760 0.1689
vn 0.1370 0.9902 -0.0274
vn 0.5133 0.8581 0.0117
vn 0.8691 0.2005 0.4523
vn 0.9761 0.2156 -0.0274
vn 0.9708 0.2398 -0.0039
vn 0.8510 0.2078 0.4823
vn -0.5439 0.8334 0.0978
vn -0.2708 0.9617 0.0432
vn -0.6929 0.6224 0.3640
vn -0.2150 0.9732 -0.0821
vn -0.2543 0.9665 0.0352
vn -0.8131 -0.4596 0.3574
vn -0.8685 0.0668 0.4912
vn -0.9953 0.0905 0.0354
vn -0.8276 -0.5609 0.0196
vn -0.8754 0.0903 0.4750
vn -0.8921 0.0826 0.4442
vn -0.8998 0.0826 0.4283
vn -0.9593 0.1997 0.1997
vn -0.9084 0.2163 0.3579
vn -0.8524 -0.2632 0.4518
vn 0.7874 0.4035 0.4661
vn 0.8787 0.3979 0.2639
vn 0.8616 0.1534 0.4839
vn 0.8678 0.1688 0.4673
vn 0.9083 0.1533 0.3892
vn -0.7641 0.3331 0.5525
vn -0.8575 0.3093 0.4112
vn -0.4816 0.5834 0.6539
vn -0.5064 0.5692 0.6477
vn -0.4923 0.5317 0.6892
vn -0.3894 0.5939 0.7040
vn -0.7226 0.3474 0.5976
vn -0.6619 0.3799 0.6463
vn 0.7654 0.5299 0.3651
vn 0.8275 0.5608 0.0275
vn -0.7568 0.3725 0.5372
vn -0.9049 0.3800 0.1919
vn -0.9447 0.3175 -0.0823
vn -0.3090 -0.9507 0.0273
vn 0.0196 0.6625 0.7488
vn 0.0117 0.6913 0.7225
vn 0.0039 0.7032 0.7110
vn 0.3876 0.5599 0.7323
vn 0.5532 0.4355 0.7101
vn 0.6690 0.4186 0.6142
vn 0.3101 0.6319 0.7103
vn 0.5428 0.5193 0.6600
vn 0.4209 0.6173 0.6647
vn -0.0039 0.8433 0.5374
vn 0.4110 0.7790 0.4736
vn -0.5048 0.7318 0.4579
vn 0.7263 0.5378 0.4280
vn -0.8040 0.5373 0.2549
vn -0.8228 0.5551 0.1220
vn 0.7395 0.6691 0.0744
vn 0.9775 0.1453 -0.1531
vn -0.9942 0.0983 -0.0432
vn 0.8903 0.1765 0.4197
vn -0.0043 0.7071 0.7071
vn 0.4189 0.6382 0.6460
vn 0.0196 0.8115 0.5841
vn 0.0353 0.8751 0.4827
vn 0.3411 0.4744 0.8115
vn 0.3092 0.9432 -0.1213
vn 0.0273 0.9963 0.0820
vn -0.1840 0.8184 0.5443
vn -0.1758 0.9490 0.2617
vn -0.0118 0.9796 -0.2006
vn 0.1367 0.9487 0.2850
vn 0.1915 0.8013 0.5667
usemtl Material.002
s 1
f 4/1/1 5/2/2 6/3/3
f 6/3/3 7/4/4 4/1/1
f 8/5/5 9/6/6 10/7/7
f 10/7/7 11/8/8 8/5/5
f 6/3/3 5/2/2 12/9/9
f 12/9/9 13/10/10 6/3/3
f 14/11/11 15/12/12 16/13/13
f 16/13/13 17/14/14 14/11/11
f 17/14/14 16/13/13 18/15/15
f 18/15/15 19/16/16 17/14/14
f 20/17/17 21/18/18 22/19/19
f 22/19/19 23/20/20 20/17/17
f 24/21/21 22/19/19 21/18/18
f 21/18/18 25/22/22 24/21/21
f 26/23/23 27/24/24 24/21/21
f 24/21/21 25/22/22 26/23/23
f 28/25/25 29/26/26 30/27/27
f 30/27/27 31/28/28 28/25/25
f 32/29/29 33/30/30 31/28/28
f 31/28/28 30/27/27 32/29/29
f 34/31/31 27/24/24 35/32/32
f 35/32/32 36/33/33 34/31/31
f 31/28/28 37/34/34 38/35/35
f 38/35/35 28/25/25 31/28/28
f 37/34/34 39/36/36 40/37/37
f 40/37/37 38/35/35 37/34/34
f 41/38/38 42/39/39 43/40/40
f 43/40/40 44/41/41 41/38/38
f 45/42/42 46/43/43 35/32/32
f 35/32/32 47/44/44 45/42/42
f 45/42/42 48/45/45 49/46/46
f 49/46/46 46/43/43 45/42/42
f 50/47/47 51/48/48 52/49/49
f 52/49/49 53/50/50 50/47/47
f 54/51/51 51/48/48 55/52/52
f 55/52/52 56/53/53 54/51/51
f 57/54/54 58/55/55 55/52/52
f 55/52/52 59/56/56 57/54/54
f 60/57/57 61/58/58 62/59/59
f 62/59/59 63/60/60 60/57/57
f 64/61/61 41/38/38 63/60/60
f 63/60/60 62/59/59 64/61/61
f 65/62/62 66/63/63 67/64/64
f 67/64/64 68/65/65 65/62/62
f 69/66/66 70/67/67 71/68/68
f 71/68/68 72/69/69 69/66/66
f 73/70/70 29/26/26 28/25/25
f 28/25/25 38/35/35 73/70/70
f 74/71/71 73/70/70 38/35/35
f 38/35/35 40/37/37 74/71/71
f 75/72/72 76/73/73 77/74/74
f 77/74/74 45/42/42 75/72/72
f 75/72/72 45/42/42 47/44/44
f 47/44/44 26/23/23 75/72/72
f 78/75/75 59/56/56 50/47/47
f 50/47/47 53/50/50 78/75/75
f 79/76/76 80/77/77 70/67/67
f 70/67/67 69/66/66 79/76/76
f 81/78/78 79/76/76 69/66/66
f 69/66/66 68/65/65 81/78/78
f 82/79/79 83/80/80 84/81/81
f 84/81/81 85/82/82 82/79/79
f 86/83/83 83/80/80 82/79/79
f 82/79/79 87/84/84 86/83/83
f 88/85/85 80/77/77 85/82/82
f 85/82/82 89/86/86 88/85/85
f 32/29/29 84/81/81 83/80/80
f 83/80/80 33/30/30 32/29/29
f 34/31/31 71/68/68 70/67/67
f 70/67/67 90/87/87 34/31/31
f 58/55/55 65/62/62 72/69/69
f 72/69/69 36/33/33 58/55/55
f 86/83/83 91/88/88 61/58/58
f 61/58/58 60/57/57 86/83/83
f 47/44/44 35/32/32 27/24/24
f 27/24/24 26/23/23 47/44/44
f 90/87/87 24/21/21 27/24/24
f 27/24/24 34/31/31 90/87/87
f 92/89/89 93/90/90 76/73/73
f 76/73/73 75/72/72 92/89/89
f 25/22/22 92/89/89 75/72/72
f 75/72/72 26/23/23 25/22/22
f 34/31/31 36/33/33 72/69/69
f 72/69/69 71/68/68 34/31/31
f 19/16/16 18/15/15 30/27/27
f 30/27/27 29/26/26 19/16/16
f 30/27/27 18/15/15 89/86/86
f 89/86/86 32/29/29 30/27/27
f 73/70/70 17/14/14 19/16/16
f 19/16/16 29/26/26 73/70/70
f 94/91/91 17/14/14 73/70/70
f 73/70/70 74/71/71 94/91/91
f 32/29/29 89/86/86 85/82/82
f 85/82/82 84/81/81 32/29/29
f 64/61/61 95/92/92 42/39/39
f 42/39/39 41/38/38 64/61/61
f 54/51/51 96/93/93 52/49/49
f 52/49/49 51/48/48 54/51/51
f 50/47/47 59/56/56 55/52/52
f 55/52/52 51/48/48 50/47/47
f 36/33/33 56/53/53 55/52/52
f 55/52/52 58/55/55 36/33/33
f 63/60/60 97/94/94 33/30/30
f 33/30/30 60/57/57 63/60/60
f 44/41/41 97/94/94 63/60/60
f 63/60/60 41/38/38 44/41/41
f 69/66/66 72/69/69 65/62/62
f 65/62/62 68/65/65 69/66/66
f 81/78/78 98/95/95 99/96/96
f 99/96/96 87/84/84 81/78/78
f 99/96/96 91/88/88 86/83/83
f 86/83/83 87/84/84 99/96/96
f 57/54/54 66/63/63 65/62/62
f 65/62/62 58/55/55 57/54/54
f 60/57/57 33/30/30 83/80/80
f 83/80/80 86/83/83 60/57/57
f 4/1/1 100/97/97 101/98/98
f 101/98/98 5/2/2 4/1/1
f 102/99/99 103/100/100 9/6/6
f 9/6/6 8/5/5 102/99/99
f 5/2/2 101/98/98 104/101/101
f 104/101/101 12/9/9 5/2/2
f 82/79/79 85/82/82 80/77/77
f 80/77/77 79/76/76 82/79/79
f 87/84/84 82/79/79 79/76/76
f 79/76/76 81/78/78 87/84/84
f 88/85/85 90/87/87 70/67/67
f 70/67/67 80/77/77 88/85/85
f 81/78/78 68/65/65 67/64/64
f 67/64/64 98/95/95 81/78/78
f 105/102/102 100/97/97 4/1/1
f 4/1/1 106/103/5 105/102/102
f 107/104/103 89/86/86 100/97/97
f 100/97/97 105/102/102 107/104/103
f 108/105/104 88/85/85 89/86/86
f 89/86/86 107/104/103 108/105/104
f 109/106/105 90/87/87 88/85/85
f 88/85/85 108/105/104 109/106/105
f 110/107/106 7/4/4 90/87/87
f 90/87/87 109/106/105 110/107/106
f 106/103/5 4/1/1 7/4/4
f 7/4/4 110/107/106 106/103/5
f 11/8/8 105/102/102 106/103/5
f 106/103/5 8/5/5 11/8/8
f 10/7/7 107/104/103 105/102/102
f 105/102/102 11/8/8 10/7/7
f 9/6/6 108/105/104 107/104/103
f 107/104/103 10/7/7 9/6/6
f 103/100/100 109/106/105 108/105/104
f 108/105/104 9/6/6 103/100/100
f 102/99/99 110/107/106 109/106/105
f 109/106/105 103/100/100 102/99/99
f 8/5/5 106/103/5 110/107/106
f 110/107/106 102/99/99 8/5/5
